<?xml version="1.0" encoding="UTF-8"?>
<svg version="1.1" xmlns="http://www.w3.org/2000/svg" width="205" height="181">
<path d="M0 0 C67.65 0 135.3 0 205 0 C205 59.73 205 119.46 205 181 C137.35 181 69.7 181 0 181 C0 121.27 0 61.54 0 0 Z " fill="#8B9EAC" transform="translate(0,0)"/>
<path d="M0 0 C8.91261096 3.70185196 14.83797107 14.25695661 20 22 C20.43570313 22.61230469 20.87140625 23.22460938 21.3203125 23.85546875 C23.18941279 26.5022716 24 27.67254741 24 31 C24.66 31 25.32 31 26 31 C26.28875 31.804375 26.5775 32.60875 26.875 33.4375 C27.73262568 36.1326468 27.73262568 36.1326468 30 37 C30.24878906 35.99195313 30.49757812 34.98390625 30.75390625 33.9453125 C31.91663362 29.88139114 33.77532729 26.48523332 35.9375 22.875 C36.28490234 22.28074219 36.63230469 21.68648437 36.99023438 21.07421875 C37.98462023 19.377583 38.99202933 17.68860038 40 16 C40.54398438 15.07058594 41.08796875 14.14117187 41.6484375 13.18359375 C42.92075684 11.1280258 44.21432886 9.61560722 46 8 C46.495 8.99 46.495 8.99 47 10 C47.33 9.67 47.66 9.34 48 9 C49.49738124 8.9020943 50.99942892 8.87025136 52.5 8.875 C53.3146875 8.87242188 54.129375 8.86984375 54.96875 8.8671875 C57 9 57 9 58 10 C58.03583487 11.56604014 58.01295981 13.13350782 57.96484375 14.69921875 C57.34531268 25.30333762 57.34531268 25.30333762 61.11328125 34.6875 C63.72136702 36.17121102 66.14463269 37.10030586 69 38 C70.68827836 38.96306487 72.36179589 39.95402435 74 41 C73.01 41.495 73.01 41.495 72 42 C71.46375 41.71125 70.9275 41.4225 70.375 41.125 C68.02510921 40.01189383 66.40617368 39.71468469 63.8515625 39.4296875 C62.58054688 39.28789063 61.30953125 39.14609375 60 39 C60.00523682 39.7520874 60.01047363 40.5041748 60.01586914 41.27905273 C60.03657227 44.66519342 60.04963877 48.05132084 60.0625 51.4375 C60.07087891 52.62150391 60.07925781 53.80550781 60.08789062 55.02539062 C60.09111328 56.15009766 60.09433594 57.27480469 60.09765625 58.43359375 C60.10289307 59.47572021 60.10812988 60.51784668 60.11352539 61.59155273 C60 64 60 64 59 65 C54.71 65 50.42 65 46 65 C45.67 54.77 45.34 44.54 45 34 C39.85127519 40.83180378 39.85127519 40.83180378 35.625 48 C35.12226563 48.94875 34.61953125 49.8975 34.1015625 50.875 C33.73804688 51.57625 33.37453125 52.2775 33 53 C29.9375 53.625 29.9375 53.625 26 53 C22.67539727 49.44932429 20.0711682 45.34510897 18.05078125 40.921875 C16.80584771 38.43090055 16.80584771 38.43090055 13 35 C12.67 44.24 12.34 53.48 12 63 C8.04 63 4.08 63 0 63 C0 49.14 0 35.28 0 21 C5 23 5 23 7 25 C6.4946875 24.45214844 5.989375 23.90429688 5.46875 23.33984375 C-0.89282855 15.57720326 -0.8103483 9.64700355 0 0 Z " fill="#095A92" transform="translate(102,51)"/>
<path d="M0 0 C4.29 0 8.58 0 13 0 C19.23672989 11.38240065 24.81354629 22.9395457 30.03369141 34.82080078 C31.29680116 37.66933987 32.61726782 40.49006816 33.9375 43.3125 C35.69554951 47.15595996 36.99674233 50.89576407 38 55 C33.38 55 28.76 55 24 55 C23.67386719 54.04738281 23.34773438 53.09476563 23.01171875 52.11328125 C22.57060497 50.84625231 22.12918229 49.57933087 21.6875 48.3125 C21.25824219 47.07113281 20.82898438 45.82976562 20.38671875 44.55078125 C19.16224628 41.41544188 17.74908937 38.85402485 16 36 C15.30948341 34.26714469 14.66398536 32.51573386 14.0625 30.75 C12.28984895 25.70581535 10.25033687 20.84780017 8 16 C4.90988056 18.58265114 3.78372082 21.48956659 2.3125 25.1875 C1.87550781 26.27417969 1.43851563 27.36085938 0.98828125 28.48046875 C0.66214844 29.31191406 0.33601563 30.14335938 0 31 C0.74765625 30.99097656 1.4953125 30.98195313 2.265625 30.97265625 C10.15745122 31.21023741 10.15745122 31.21023741 12.62109375 33.51953125 C14.27425157 36.39590475 15 38.68382194 15 42 C4.605 42.495 4.605 42.495 -6 43 C-7.65 46.96 -9.3 50.92 -11 55 C-15.29 55 -19.58 55 -24 55 C-22.55760712 49.35062787 -20.45576265 44.27948973 -18 39 C-17.53207031 37.98421875 -17.06414063 36.9684375 -16.58203125 35.921875 C-15.55953193 33.70339317 -14.53475017 31.48596205 -13.5078125 29.26953125 C-12.13424302 26.29109173 -10.78291791 23.30372786 -9.4375 20.3125 C-7.44483081 15.90934389 -5.32046247 11.58839269 -3.11328125 7.2890625 C-1.95774908 4.91312617 -0.9812257 2.45306424 0 0 Z " fill="#073C69" transform="translate(59,59)"/>
<path d="M0 0 C3.3056439 2.67599744 4.47889603 6.16328687 6 10 C6.78805736 11.91815349 7.58005901 13.83468905 8.375 15.75 C9.01501953 17.29880859 9.01501953 17.29880859 9.66796875 18.87890625 C10.93752679 21.85361848 12.29889254 24.76691853 13.6875 27.6875 C15.87356055 32.41709012 17.07655707 36.87908918 18 42 C19.32 42 20.64 42 22 42 C22 42.66 22 43.32 22 44 C17.66455913 45.10106435 13.74818074 46.01246968 9.25 45.9375 C5.58506452 46.00797953 3.92582057 46.87213049 1 49 C1 48.01 1 47.02 1 46 C0.01 46 -0.98 46 -2 46 C-2 48.31 -2 50.62 -2 53 C-6.875 48.25 -6.875 48.25 -8 46 C-9.175625 46.185625 -10.35125 46.37125 -11.5625 46.5625 C-15.54147019 47.07934132 -19.03606022 46.64717384 -23 46 C-23.495 46.495 -23.495 46.495 -24 47 C-26.33944736 46.71269945 -28.6739143 46.38063221 -31 46 C-31 45.34 -31 44.68 -31 44 C-28.03488137 42.74207088 -25.7387757 41.97201168 -22.5 41.625 C-18.1657618 39.61267512 -17.8942833 38.25843754 -16.125 33.9375 C-15.41455977 31.95908864 -14.70572042 29.98009987 -14 28 C-13 27 -13 27 -10.95874023 26.88647461 C-10.08419189 26.89171143 -9.20964355 26.89694824 -8.30859375 26.90234375 C-7.36435547 26.90556641 -6.42011719 26.90878906 -5.44726562 26.91210938 C-4.45404297 26.92048828 -3.46082031 26.92886719 -2.4375 26.9375 C-1.44041016 26.94201172 -0.44332031 26.94652344 0.58398438 26.95117188 C3.05601487 26.96299977 5.52801472 26.98093585 8 27 C6.68 24.03 5.36 21.06 4 18 C0.04 17.67 -3.92 17.34 -8 17 C-5.86611291 10.75075924 -3.98955482 5.27191173 0 0 Z " fill="#9CAFBE" transform="translate(66,74)"/>
<path d="M0 0 C0.33 0 0.66 0 1 0 C1.12117188 0.81984375 1.24234375 1.6396875 1.3671875 2.484375 C1.53476563 3.56203125 1.70234375 4.6396875 1.875 5.75 C2.03742188 6.81734375 2.19984375 7.8846875 2.3671875 8.984375 C2.93716445 11.70056147 3.52739555 13.66564924 5 16 C5.66 16.33 6.32 16.66 7 17 C7 17.99 7 18.98 7 20 C7.66 20 8.32 20 9 20 C9.18175781 20.54269531 9.36351563 21.08539063 9.55078125 21.64453125 C9.80214844 22.35996094 10.05351563 23.07539062 10.3125 23.8125 C10.67794922 24.87404297 10.67794922 24.87404297 11.05078125 25.95703125 C12.07654423 28.16474335 13.21063741 29.37544712 15 31 C18.42725142 35.17230608 21.29125726 39.87377179 23 45 C23.99 45 24.98 45 26 45 C26.3403125 45.9590625 26.3403125 45.9590625 26.6875 46.9375 C27.85250896 49.27193661 27.85250896 49.27193661 30.625 49.75 C31.40875 49.8325 32.1925 49.915 33 50 C32.67 50.99 32.34 51.98 32 53 C29.234375 53.296875 29.234375 53.296875 26 53 C23.953125 50.953125 23.953125 50.953125 22.25 48.25 C21.67765625 47.36828125 21.1053125 46.4865625 20.515625 45.578125 C19 43 19 43 18.046875 40.921875 C16.80692327 38.4299727 16.80692327 38.4299727 13 35 C12.67 44.24 12.34 53.48 12 63 C8.04 63 4.08 63 0 63 C0 49.14 0 35.28 0 21 C5 23 5 23 7 25 C6.4946875 24.45214844 5.989375 23.90429688 5.46875 23.33984375 C-0.89282855 15.57720326 -0.8103483 9.64700355 0 0 Z " fill="#044677" transform="translate(102,51)"/>
<path d="M0 0 C0.99 0 1.98 0 3 0 C3.103125 0.639375 3.20625 1.27875 3.3125 1.9375 C3.539375 2.618125 3.76625 3.29875 4 4 C4.99 4.33 5.98 4.66 7 5 C8.03291676 6.98320018 9.0337499 8.98347806 10 11 C10.66 11.33 11.32 11.66 12 12 C12 13.65 12 15.3 12 17 C15.465 16.505 15.465 16.505 19 16 C19.268125 15.278125 19.53625 14.55625 19.8125 13.8125 C21 11 21 11 22.625 8.375 C24.25051814 6.02467224 24.25051814 6.02467224 24 3 C24.66 2.67 25.32 2.34 26 2 C26.33 2.99 26.66 3.98 27 5 C27.33 3.68 27.66 2.36 28 1 C28.66 1 29.32 1 30 1 C30.05819424 4.24992446 30.09366116 7.49971435 30.125 10.75 C30.14175781 11.67039062 30.15851563 12.59078125 30.17578125 13.5390625 C30.18222656 14.42851563 30.18867188 15.31796875 30.1953125 16.234375 C30.20578613 17.05131836 30.21625977 17.86826172 30.22705078 18.70996094 C29.97172015 21.28523122 29.45660617 22.86144412 28 25 C24.83984375 25.609375 24.83984375 25.609375 20.9375 25.75 C19.92901001 25.79338501 19.92901001 25.79338501 18.90014648 25.83764648 C13.93327038 26.0338879 8.96932663 26.08718117 4 26 C4 26.66 4 27.32 4 28 C3.01 28.33 2.02 28.66 1 29 C-0.01085428 25.65613602 -0.11543463 22.6251882 -0.09765625 19.140625 C-0.09443359 18.02558594 -0.09121094 16.91054687 -0.08789062 15.76171875 C-0.07951172 14.60285156 -0.07113281 13.44398437 -0.0625 12.25 C-0.05798828 11.07566406 -0.05347656 9.90132812 -0.04882812 8.69140625 C-0.03705094 5.79421928 -0.02060326 2.89713546 0 0 Z " fill="#9DAEBA" transform="translate(116,95)"/>
<path d="M0 0 C1.65 0 3.3 0 5 0 C5 1.65 5 3.3 5 5 C4.01 5.33 3.02 5.66 2 6 C0 3 0 3 0 0 Z M1 5 C2.0625 6.8125 2.0625 6.8125 3 9 C2.67 9.99 2.34 10.98 2 12 C3.32 12.33 4.64 12.66 6 13 C6.33 14.32 6.66 15.64 7 17 C11.29 17 15.58 17 20 17 C20 17.99 20 18.98 20 20 C9.605 20.495 9.605 20.495 -1 21 C-2.65 24.96 -4.3 28.92 -6 33 C-10.29 33 -14.58 33 -19 33 C-17.55821217 27.35299766 -15.47280138 22.26962502 -13 17 C-12.60554688 16.10023437 -12.21109375 15.20046875 -11.8046875 14.2734375 C-11.39476562 13.37882812 -10.98484375 12.48421875 -10.5625 11.5625 C-10.19253906 10.73878906 -9.82257812 9.91507812 -9.44140625 9.06640625 C-6.7237173 5.17031559 -3.54254199 5 1 5 Z " fill="#07203C" transform="translate(54,81)"/>
<path d="M0 0 C1.32 0 2.64 0 4 0 C4 0.99 4 1.98 4 3 C4.40347656 2.5153125 4.80695313 2.030625 5.22265625 1.53125 C7.96666595 -0.8328199 10.33771956 -0.52865877 13.8359375 -0.4375 C16 0 16 0 18.5625 2.5 C19.036875 3.325 19.51125 4.15 20 5 C20.33 3.35 20.66 1.7 21 0 C23.475 0.495 23.475 0.495 26 1 C26.33 2.65 26.66 4.3 27 6 C27.66 6 28.32 6 29 6 C29 4.35 29 2.7 29 1 C29.66 0.67 30.32 0.34 31 0 C31 2.64 31 5.28 31 8 C31.66 8 32.32 8 33 8 C33 10.31 33 12.62 33 15 C31.35 15.33 29.7 15.66 28 16 C28 15.34 28 14.68 28 14 C27.34 14 26.68 14 26 14 C25.67 14.66 25.34 15.32 25 16 C23.700625 15.814375 22.40125 15.62875 21.0625 15.4375 C18.91424457 15.1018371 18.91424457 15.1018371 17 15 C16.67 15.33 16.34 15.66 16 16 C14.00390625 15.94921875 14.00390625 15.94921875 11.5625 15.6875 C10.35787109 15.56955078 10.35787109 15.56955078 9.12890625 15.44921875 C7 15 7 15 5 13 C3.35 13 1.7 13 0 13 C0 8.71 0 4.42 0 0 Z " fill="#437495" transform="translate(144,120)"/>
<path d="M0 0 C0.99 0 1.98 0 3 0 C3.33 3.3 3.66 6.6 4 10 C5.32 10 6.64 10 8 10 C8 6.7 8 3.4 8 0 C9.32 0 10.64 0 12 0 C12.33 0.99 12.66 1.98 13 3 C13.66 3 14.32 3 15 3 C15 2.34 15 1.68 15 1 C17.40059817 -0.20029908 18.89360649 -0.11459743 21.5703125 -0.09765625 C22.46621094 -0.09443359 23.36210937 -0.09121094 24.28515625 -0.08789062 C25.69087891 -0.07532227 25.69087891 -0.07532227 27.125 -0.0625 C28.06988281 -0.05798828 29.01476562 -0.05347656 29.98828125 -0.04882812 C32.32558387 -0.03702357 34.66276061 -0.02055759 37 0 C36.67 1.32 36.34 2.64 36 4 C35.34 4 34.68 4 34 4 C34 6.97 34 9.94 34 13 C31.66666667 13 29.33333333 13 27 13 C26.46375 13.350625 25.9275 13.70125 25.375 14.0625 C21.17820716 15.71912875 16.72711036 14.37912179 12.4375 13.4375 C9.81568751 12.86461443 9.81568751 12.86461443 6.375 13.25 C3 13 3 13 1.0625 11 C-0.31823119 7.10146489 -0.2096324 4.12277052 0 0 Z " fill="#879BA5" transform="translate(105,120)"/>
<path d="M0 0 C1.47906892 -0.02689216 2.95827483 -0.04634621 4.4375 -0.0625 C5.26121094 -0.07410156 6.08492187 -0.08570313 6.93359375 -0.09765625 C9 0 9 0 10 1 C10.15740605 2.70563778 10.25093392 4.41727244 10.31640625 6.12890625 C10.35830078 7.16337891 10.40019531 8.19785156 10.44335938 9.26367188 C10.48267578 10.35228516 10.52199219 11.44089844 10.5625 12.5625 C10.60568359 13.65498047 10.64886719 14.74746094 10.69335938 15.87304688 C10.79982068 18.58189564 10.90183516 21.29083992 11 24 C10.22116455 23.68756348 9.4423291 23.37512695 8.63989258 23.05322266 C6.33160279 22.13229764 4.01597776 21.24324595 1.6875 20.375 C0.470625 19.92125 -0.74625 19.4675 -2 19 C-2.1546875 19.9590625 -2.1546875 19.9590625 -2.3125 20.9375 C-2.539375 21.618125 -2.76625 22.29875 -3 23 C-3.99 23.33 -4.98 23.66 -6 24 C-6.66 24.99 -7.32 25.98 -8 27 C-8.66 26.67 -9.32 26.34 -10 26 C-9.67 25.01 -9.34 24.02 -9 23 C-9.99 23 -10.98 23 -12 23 C-11.51804282 17.93944961 -9.91256904 15.11186217 -7 11 C-6.484375 9.948125 -5.96875 8.89625 -5.4375 7.8125 C-4.14448374 5.28268557 -3.06240103 3.87491003 -1 2 C-0.67 1.34 -0.34 0.68 0 0 Z " fill="#0CB1FB" transform="translate(150,60)"/>
<path d="M0 0 C1.98 0.99 3.96 1.98 6 3 C6 3.99 6 4.98 6 6 C7.32 6.33 8.64 6.66 10 7 C10.33 15.91 10.66 24.82 11 34 C7.37 33.67 3.74 33.34 0 33 C0 22.11 0 11.22 0 0 Z " fill="#1272B2" transform="translate(150,80)"/>
<path d="M0 0 C6.6 0 13.2 0 20 0 C20 0.99 20 1.98 20 3 C20.99 3.33 21.98 3.66 23 4 C23.02578125 4.84304687 23.0515625 5.68609375 23.078125 6.5546875 C23.13484375 7.65039062 23.1915625 8.74609375 23.25 9.875 C23.29640625 10.96554688 23.3428125 12.05609375 23.390625 13.1796875 C23.68846128 16.1332065 23.68846128 16.1332065 26.046875 17.3828125 C26.69140625 17.58648437 27.3359375 17.79015625 28 18 C28 17.34 28 16.68 28 16 C28.66 16 29.32 16 30 16 C30.144375 17.093125 30.28875 18.18625 30.4375 19.3125 C30.88288104 22.93122987 30.88288104 22.93122987 32 26 C31.79375 26.804375 31.5875 27.60875 31.375 28.4375 C30.70641485 31.08245127 30.70641485 31.08245127 32.4375 33.3125 C32.953125 33.869375 33.46875 34.42625 34 35 C34.99 34.01 35.98 33.02 37 32 C37 32.99 37 33.98 37 35 C37.66 35 38.32 35 39 35 C38.91621094 35.59167969 38.83242187 36.18335938 38.74609375 36.79296875 C38.19110576 41.09939457 37.76773348 44.75552644 39 49 C35.58983158 47.98241933 34.91824434 46.8543298 33.140625 43.68701172 C32.49737614 42.27376681 31.8680137 40.85414857 31.25 39.4296875 C30.91000977 38.67462921 30.57001953 37.91957092 30.21972656 37.14163208 C29.13433687 34.72464041 28.0667679 32.30026024 27 29.875 C25.92944012 27.47300373 24.85529154 25.07264177 23.78027344 22.67263794 C23.11342081 21.18041692 22.44979276 19.68674894 21.79003906 18.19137573 C19.66258352 13.38625342 17.37940321 8.68576612 15 4 C9.72 4 4.44 4 -1 4 C-0.67 2.68 -0.34 1.36 0 0 Z " fill="#96B4C8" transform="translate(57,56)"/>
<path d="M0 0 C0.66 0 1.32 0 2 0 C1.67 3.3 1.34 6.6 1 10 C1.66 9.67 2.32 9.34 3 9 C3 9.66 3 10.32 3 11 C3.99 11 4.98 11 6 11 C5.50341703 16.66104589 4.45489316 20.87674471 2 26 C2.75925781 26.01417969 3.51851562 26.02835938 4.30078125 26.04296875 C7.27689032 26.1857911 10.08053972 26.39716159 13 27 C15.22827148 29.48293108 16 30.68756765 16 34 C12.04 34 8.08 34 4 34 C3.67 33.34 3.34 32.68 3 32 C0.98330173 30.86649466 0.98330173 30.86649466 -1 30 C-0.979375 29.236875 -0.95875 28.47375 -0.9375 27.6875 C-0.87057159 24.89814214 -0.87057159 24.89814214 -2 22 C-2.66 22 -3.32 22 -4 22 C-4.33 22.66 -4.66 23.32 -5 24 C-6.65 23.67 -8.3 23.34 -10 23 C-8.25041085 17.1547817 -6.10583829 12.24110211 -3 7 C-1.92891703 4.68991004 -0.9626553 2.35850549 0 0 Z M-3 17 C-2.65555119 19.47266765 -2.65555119 19.47266765 -2 22 C-1.34 22.33 -0.68 22.66 0 23 C0.66 22.67 1.32 22.34 2 22 C2 20.35 2 18.7 2 17 C0.35 17 -1.3 17 -3 17 Z " fill="#073B66" transform="translate(57,64)"/>
<path d="M0 0 C0.66 0 1.32 0 2 0 C2.33 0.99 2.66 1.98 3 3 C4.32 3 5.64 3 7 3 C7.33 3.99 7.66 4.98 8 6 C7.01 6.33 6.02 6.66 5 7 C3.83631639 11.26683991 4.26484638 14.67076202 5 19 C5 19.66 5 20.32 5 21 C7.97 21.33 10.94 21.66 14 22 C13.45276317 25.37462715 12.9451 27.08235 11 30 C10.34 30 9.68 30 9 30 C8.67 30.66 8.34 31.32 8 32 C6.35 31.34 4.7 30.68 3 30 C3 31.65 3 33.3 3 35 C2.01 35.495 2.01 35.495 1 36 C0.5359375 34.7934375 0.5359375 34.7934375 0.0625 33.5625 C-1.70576915 30.83888394 -1.70576915 30.83888394 -4.203125 30.4453125 C-6.47431216 30.20962327 -8.71758269 30.05263436 -11 30 C-11.33 30.99 -11.66 31.98 -12 33 C-12.66 33 -13.32 33 -14 33 C-14 32.01 -14 31.02 -14 30 C-14.66 30 -15.32 30 -16 30 C-16 29.34 -16 28.68 -16 28 C-15.00097656 27.95101562 -14.00195312 27.90203125 -12.97265625 27.8515625 C-11.68230469 27.77679688 -10.39195312 27.70203125 -9.0625 27.625 C-7.13083984 27.52058594 -7.13083984 27.52058594 -5.16015625 27.4140625 C-4.11730469 27.27742188 -3.07445312 27.14078125 -2 27 C-0.68638302 24.37276604 -0.78746091 22.27389439 -0.68359375 19.3359375 C-0.64169922 18.21445313 -0.59980469 17.09296875 -0.55664062 15.9375 C-0.51732422 14.761875 -0.47800781 13.58625 -0.4375 12.375 C-0.39431641 11.19164063 -0.35113281 10.00828125 -0.30664062 8.7890625 C-0.20032574 5.85949672 -0.09829358 2.92984412 0 0 Z " fill="#8BA8BC" transform="translate(162,90)"/>
<path d="M0 0 C0.33 0 0.66 0 1 0 C1.12117188 0.81984375 1.24234375 1.6396875 1.3671875 2.484375 C1.53476563 3.56203125 1.70234375 4.6396875 1.875 5.75 C2.03742188 6.81734375 2.19984375 7.8846875 2.3671875 8.984375 C2.93716445 11.70056147 3.52739555 13.66564924 5 16 C5.66 16.33 6.32 16.66 7 17 C7 17.99 7 18.98 7 20 C7.66 20 8.32 20 9 20 C9.18175781 20.54269531 9.36351563 21.08539063 9.55078125 21.64453125 C9.80214844 22.35996094 10.05351563 23.07539062 10.3125 23.8125 C10.67794922 24.87404297 10.67794922 24.87404297 11.05078125 25.95703125 C12.07654423 28.16474335 13.21063741 29.37544712 15 31 C18.42725142 35.17230608 21.29125726 39.87377179 23 45 C23.99 45 24.98 45 26 45 C26.3403125 45.9590625 26.3403125 45.9590625 26.6875 46.9375 C27.85250896 49.27193661 27.85250896 49.27193661 30.625 49.75 C31.40875 49.8325 32.1925 49.915 33 50 C32.67 50.99 32.34 51.98 32 53 C29.234375 53.296875 29.234375 53.296875 26 53 C23.953125 50.953125 23.953125 50.953125 22.25 48.25 C21.67765625 47.36828125 21.1053125 46.4865625 20.515625 45.578125 C19 43 19 43 18.046875 40.921875 C16.80692327 38.4299727 16.80692327 38.4299727 13 35 C12.67 40.94 12.34 46.88 12 53 C11.67 53 11.34 53 11 53 C10.95101562 52.04738281 10.90203125 51.09476563 10.8515625 50.11328125 C10.73941406 48.23189453 10.73941406 48.23189453 10.625 46.3125 C10.55539063 45.07113281 10.48578125 43.82976562 10.4140625 42.55078125 C10.0329283 39.28237568 9.28717768 36.9877173 8 34 C8 33.01 8 32.02 8 31 C7.01 30.67 6.02 30.34 5 30 C5 31.65 5 33.3 5 35 C4.01 35 3.02 35 2 35 C1.04738513 30.23692563 0.91666643 25.8333472 1 21 C3.46800047 22.15173355 5.04783565 23.04783565 7 25 C6.4946875 24.45214844 5.989375 23.90429688 5.46875 23.33984375 C-0.89282855 15.57720326 -0.8103483 9.64700355 0 0 Z " fill="#1C6190" transform="translate(102,51)"/>
<path d="M0 0 C1.11003081 1.11003081 2.21809301 2.22205619 3.3203125 3.33984375 C4.54005988 4.54540802 5.78908287 5.72157578 7.0546875 6.87890625 C13.93049499 13.33835862 18.78391744 20.56783489 23 29 C20.69 29.33 18.38 29.66 16 30 C15.67386719 29.50628906 15.34773438 29.01257813 15.01171875 28.50390625 C14.35623047 27.54291016 14.35623047 27.54291016 13.6875 26.5625 C13.25824219 25.92441406 12.82898438 25.28632812 12.38671875 24.62890625 C10.9965948 22.7114316 10.9965948 22.7114316 8 22 C8 21.34 8 20.68 8 20 C7.34 20 6.68 20 6 20 C6 19.01 6 18.02 6 17 C5.01 16.67 4.02 16.34 3 16 C0.77891226 12.76657976 0.62584269 9.59625455 0.375 5.75 C0.30023438 4.67234375 0.22546875 3.5946875 0.1484375 2.484375 C0.09945312 1.66453125 0.05046875 0.8446875 0 0 Z " fill="#0481CD" transform="translate(103,51)"/>
<path d="M0 0 C0.99 0 1.98 0 3 0 C3.33 0.99 3.66 1.98 4 3 C4.99 3 5.98 3 7 3 C7 4.65 7 6.3 7 8 C8.32 8.33 9.64 8.66 11 9 C11.103125 9.639375 11.20625 10.27875 11.3125 10.9375 C11.539375 11.618125 11.76625 12.29875 12 13 C12.99 13.33 13.98 13.66 15 14 C16.1875 17.0625 16.1875 17.0625 17 20 C18.32 18.68 19.64 17.36 21 16 C21.99 16.33 22.98 16.66 24 17 C23.01 18.32 22.02 19.64 21 21 C21.66 21 22.32 21 23 21 C23.70074844 24.153368 24 26.72724974 24 30 C25.9600281 31.63676257 25.9600281 31.63676257 28 33 C28 33.66 28 34.32 28 35 C27.34 35 26.68 35 26 35 C26 35.66 26 36.32 26 37 C24.515 36.505 24.515 36.505 23 36 C23 35.34 23 34.68 23 34 C22.34 34 21.68 34 21 34 C20.72027344 33.46632812 20.44054687 32.93265625 20.15234375 32.3828125 C15.59763168 23.91778493 10.57054764 16.18501375 3.578125 9.5390625 C1.50668345 7.51889425 -0.25485618 5.30358984 -2 3 C-1 1 -1 1 0 0 Z " fill="#84B8D9" transform="translate(105,48)"/>
<path d="M0 0 C1.32 1.32 2.64 2.64 4 4 C3.76977539 6.87158203 3.76977539 6.87158203 3 10 C2.86090105 12.01619049 2.7564684 14.03501874 2.68359375 16.0546875 C2.64169922 17.16328125 2.59980469 18.271875 2.55664062 19.4140625 C2.51732422 20.55617188 2.47800781 21.69828125 2.4375 22.875 C2.39431641 24.0403125 2.35113281 25.205625 2.30664062 26.40625 C2.20098371 29.27072625 2.09888201 32.13528321 2 35 C1.01 35 0.02 35 -1 35 C-1 38.3 -1 41.6 -1 45 C-2.32 45 -3.64 45 -5 45 C-6.20272819 42.59454362 -6.10071472 41.05003047 -6.0625 38.375 C-6.05347656 37.55773437 -6.04445313 36.74046875 -6.03515625 35.8984375 C-6.02355469 35.27195313 -6.01195313 34.64546875 -6 34 C-7.32 34 -8.64 34 -10 34 C-10.33 34.99 -10.66 35.98 -11 37 C-11.99 36.34 -12.98 35.68 -14 35 C-16.27912938 34.54605448 -16.27912938 34.54605448 -18.6875 34.375 C-19.49574219 34.30023438 -20.30398437 34.22546875 -21.13671875 34.1484375 C-21.75160156 34.09945312 -22.36648437 34.05046875 -23 34 C-21 31 -21 31 -19.0625 30.3125 C-15.64294936 29.79438627 -13.41017411 30.14745647 -10 31 C-6.7 30.67 -3.4 30.34 0 30 C0 20.1 0 10.2 0 0 Z " fill="#97AFBD" transform="translate(114,85)"/>
<path d="M0 0 C0.99 0 1.98 0 3 0 C3.103125 0.639375 3.20625 1.27875 3.3125 1.9375 C3.539375 2.618125 3.76625 3.29875 4 4 C4.99 4.33 5.98 4.66 7 5 C9.59367168 9.1306623 10.34641555 12.15018224 10 17 C9.34 17 8.68 17 8 17 C7.9175 17.5775 7.835 18.155 7.75 18.75 C6.774018 21.67794601 5.36488777 23.05244537 3 25 C2.01 25 1.02 25 0 25 C0 16.75 0 8.5 0 0 Z " fill="#A3B2C1" transform="translate(116,95)"/>
<path d="M0 0 C5.39612995 4.36829567 6.96481339 12.63462913 9 19 C8.30519531 18.84660156 7.61039063 18.69320312 6.89453125 18.53515625 C3.82044156 17.96680229 0.80378779 17.67721445 -2.3125 17.4375 C-3.91544922 17.31181641 -3.91544922 17.31181641 -5.55078125 17.18359375 C-6.76314453 17.09271484 -6.76314453 17.09271484 -8 17 C-5.92973665 10.81123404 -3.95708095 5.22899982 0 0 Z " fill="#96A7B7" transform="translate(66,74)"/>
<path d="M0 0 C2.61316202 2.27597982 2.9471229 3.62986031 3.4375 7.0625 C3 10 3 10 1.375 11.875 C-1.66319551 13.31414524 -3.67439432 13.42454541 -7 13 C-8.875 12 -8.875 12 -10 10 C-10.54135705 6.39095302 -10.62822841 3.2195022 -8.9375 -0.0625 C-5.71959765 -1.61954952 -3.36447939 -0.90119984 0 0 Z " fill="#13273C" transform="translate(50,120)"/>
<path d="M0 0 C5.62899961 -0.55423996 8.7564422 1.14594341 13.375 4 C14.01566406 4.3815625 14.65632813 4.763125 15.31640625 5.15625 C16.88462755 6.09250152 18.44332645 7.04467157 20 8 C19.01 8.495 19.01 8.495 18 9 C17.46375 8.71125 16.9275 8.4225 16.375 8.125 C14.02510921 7.01189383 12.40617368 6.71468469 9.8515625 6.4296875 C7.94503906 6.21699219 7.94503906 6.21699219 6 6 C6.00523682 6.7520874 6.01047363 7.5041748 6.01586914 8.27905273 C6.03657227 11.66519342 6.04963877 15.05132084 6.0625 18.4375 C6.07087891 19.62150391 6.07925781 20.80550781 6.08789062 22.02539062 C6.09111328 23.15009766 6.09433594 24.27480469 6.09765625 25.43359375 C6.10289307 26.47572021 6.10812988 27.51784668 6.11352539 28.59155273 C6 31 6 31 5 32 C0.71 32 -3.58 32 -8 32 C-8 22.1 -8 12.2 -8 2 C-7.67 2 -7.34 2 -7 2 C-7 11.24 -7 20.48 -7 30 C-3.04 30 0.92 30 5 30 C4.34 21.09 3.68 12.18 3 3 C2.01 2.67 1.02 2.34 0 2 C0 1.34 0 0.68 0 0 Z " fill="#5C86A0" transform="translate(156,84)"/>
<path d="M0 0 C1.32 0 2.64 0 4 0 C4 0.99 4 1.98 4 3 C4.70125 2.67 5.4025 2.34 6.125 2 C9.30775326 0.89295539 11.65328734 0.70251443 15 1 C15.66 1.66 16.32 2.32 17 3 C16.625 5.125 16.625 5.125 16 7 C16 6.01 16 5.02 16 4 C14.35 4 12.7 4 11 4 C9.98888907 7.04913228 9.98888907 7.04913228 11 10 C12.98 10 14.96 10 17 10 C16.67 10.99 16.34 11.98 16 13 C9.6 13.36923077 9.6 13.36923077 6.5625 11.5 C6.046875 11.005 5.53125 10.51 5 10 C5 10.99 5 11.98 5 13 C3.35 13 1.7 13 0 13 C0 8.71 0 4.42 0 0 Z " fill="#3E789F" transform="translate(144,120)"/>
<path d="M0 0 C0.66 0 1.32 0 2 0 C2 1.65 2 3.3 2 5 C2.94875 4.79375 3.8975 4.5875 4.875 4.375 C6.421875 4.189375 6.421875 4.189375 8 4 C8.66 4.66 9.32 5.32 10 6 C9.34 6.66 8.68 7.32 8 8 C4.875 7.625 4.875 7.625 2 7 C2 7.99 2 8.98 2 10 C7.61 10.33 13.22 10.66 19 11 C18.67 11.66 18.34 12.32 18 13 C14.9375 13.4140625 14.9375 13.4140625 11 13.625 C10.32316162 13.66294678 9.64632324 13.70089355 8.94897461 13.73999023 C3.95876996 14.00250726 -1.00497215 14.08763207 -6 14 C-6 14.66 -6 15.32 -6 16 C-6.99 16.33 -7.98 16.66 -9 17 C-9 15.68 -9 14.36 -9 13 C-8.34 13 -7.68 13 -7 13 C-6.566875 12.0409375 -6.566875 12.0409375 -6.125 11.0625 C-5 9 -5 9 -3 8 C-2.67 7.01 -2.34 6.02 -2 5 C-1.34 5 -0.68 5 0 5 C0 3.35 0 1.7 0 0 Z " fill="#9FB3C5" transform="translate(126,107)"/>
<path d="M0 0 C1.98 0.99 3.96 1.98 6 3 C6 3.99 6 4.98 6 6 C7.32 6.33 8.64 6.66 10 7 C10.05429959 8.74965358 10.09292823 10.49979787 10.125 12.25 C10.14820313 13.22453125 10.17140625 14.1990625 10.1953125 15.203125 C9.99862781 18.0196498 9.44568916 19.60949036 8 22 C7.67 20.35 7.34 18.7 7 17 C6.01 16.67 5.02 16.34 4 16 C4 15.34 4 14.68 4 14 C2.68 14 1.36 14 0 14 C0 9.38 0 4.76 0 0 Z " fill="#1493DE" transform="translate(150,80)"/>
<path d="M0 0 C0.33 0.66 0.66 1.32 1 2 C-0.17991907 4.46412392 -1.40992034 6.81253005 -2.75 9.1875 C-5.45399442 14.04020427 -7.89182383 18.85631701 -10 24 C-9.01 24 -8.02 24 -7 24 C-6 27 -6 27 -6 30 C-6.33 30.66 -6.66 31.32 -7 32 C-7.99 32 -8.98 32 -10 32 C-10 31.34 -10 30.68 -10 30 C-11.98 30.99 -13.96 31.98 -16 33 C-15.19518131 23.14097106 -11.10428579 16.18707226 -6 8 C-5.18402344 6.61361328 -5.18402344 6.61361328 -4.3515625 5.19921875 C-3.08090553 3.13164686 -1.79215316 1.62147191 0 0 Z " fill="#057CC3" transform="translate(148,59)"/>
<path d="M0 0 C2.475 0.495 2.475 0.495 5 1 C5.33 2.65 5.66 4.3 6 6 C6.66 6 7.32 6 8 6 C8 4.35 8 2.7 8 1 C8.66 0.67 9.32 0.34 10 0 C10 2.64 10 5.28 10 8 C10.66 8 11.32 8 12 8 C12 9.98 12 11.96 12 14 C8.31245243 13.50168276 6.39509338 12.89932357 4 10 C4 11.32 4 12.64 4 14 C2.68 14 1.36 14 0 14 C0 9.38 0 4.76 0 0 Z " fill="#3C6786" transform="translate(165,120)"/>
<path d="M0 0 C0.33 0 0.66 0 1 0 C1.04898438 0.969375 1.09796875 1.93875 1.1484375 2.9375 C1.61424198 11.48442046 2.40893117 19.9016478 3.59765625 28.37890625 C3.9947416 31.95267437 4.06935068 35.40763462 4 39 C6.31 39 8.62 39 11 39 C11 39.99 11 40.98 11 42 C7.37 42 3.74 42 0 42 C0 28.14 0 14.28 0 0 Z " fill="#103150" transform="translate(102,72)"/>
<path d="M0 0 C4.29 0 8.58 0 13 0 C14.23060421 2.46120841 14.2057723 4.25776866 14.31640625 7.0078125 C14.35830078 7.99394531 14.40019531 8.98007813 14.44335938 9.99609375 C14.48267578 11.02863281 14.52199219 12.06117187 14.5625 13.125 C14.60568359 14.16527344 14.64886719 15.20554687 14.69335938 16.27734375 C14.7996288 18.85142528 14.90166583 21.42560508 15 24 C15.66 24.33 16.32 24.66 17 25 C17 25.99 17 26.98 17 28 C12.125 26.125 12.125 26.125 11 25 C10.84285346 23.36743242 10.74914586 21.72864662 10.68359375 20.08984375 C10.64169922 19.10048828 10.59980469 18.11113281 10.55664062 17.09179688 C10.51732422 16.05087891 10.47800781 15.00996094 10.4375 13.9375 C10.39431641 12.89271484 10.35113281 11.84792969 10.30664062 10.77148438 C10.20018775 8.18113116 10.0981724 5.59067814 10 3 C7.03 2.67 4.06 2.34 1 2 C0.34 3.65 -0.32 5.3 -1 7 C-1.33 6.34 -1.66 5.68 -2 5 C-1.34 3.35 -0.68 1.7 0 0 Z " fill="#72A3BC" transform="translate(149,58)"/>
<path d="M0 0 C3 1 3 1 4 3 C5.32 2.34 6.64 1.68 8 1 C8.33 1.99 8.66 2.98 9 4 C9.825 4.99 10.65 5.98 11.5 7 C14 10 14 10 15 13 C14.01 13.99 13.02 14.98 12 16 C11.34 15.67 10.68 15.34 10 15 C7.90178785 15.39938767 7.90178785 15.39938767 6 16 C4.5393715 13.35261084 4 12.10551666 4 9 C3.525625 8.566875 3.05125 8.13375 2.5625 7.6875 C0.37899018 5.3293094 0.34733049 3.12597439 0 0 Z " fill="#043560" transform="translate(73,80)"/>
<path d="M0 0 C6.93359375 -0.09765625 6.93359375 -0.09765625 9 0 C10 1 10 1 10.09765625 3.72265625 C10.08605469 4.82480469 10.07445313 5.92695312 10.0625 7.0625 C10.05347656 8.16722656 10.04445313 9.27195313 10.03515625 10.41015625 C10.02355469 11.26480469 10.01195313 12.11945313 10 13 C6.73988358 12.30621489 5.20961747 11.54106009 3 9 C3 10.32 3 11.64 3 13 C2.01 13 1.02 13 0 13 C0 8.71 0 4.42 0 0 Z " fill="#1B4060" transform="translate(93,120)"/>
<path d="M0 0 C1.81982071 2.72973106 3.08326247 4.86781344 4 8 C3.1875 10.0625 3.1875 10.0625 2 12 C1.835 12.721875 1.67 13.44375 1.5 14.1875 C1.335 14.785625 1.17 15.38375 1 16 C-2.04539803 17.52269902 -4.70412652 16.47939978 -8 16 C-8.33 16.33 -8.66 16.66 -9 17 C-11.33944736 16.71269945 -13.6739143 16.38063221 -16 16 C-16 15.34 -16 14.68 -16 14 C-13.04969158 12.748354 -10.64167946 11.9497094 -7.4375 11.5 C-3.35217378 9.71731219 -3.14932606 8.87020037 -1.5625 4.875 C-1.0153313 3.25867739 -0.48590616 1.63578347 0 0 Z " fill="#97ABBB" transform="translate(51,104)"/>
<path d="M0 0 C0.33 0 0.66 0 1 0 C1 10.56 1 21.12 1 32 C5.29 32 9.58 32 14 32 C13.67 32.66 13.34 33.32 13 34 C10.34765625 34.44921875 10.34765625 34.44921875 7.0625 34.6875 C5.98097656 34.77386719 4.89945313 34.86023438 3.78515625 34.94921875 C1 35 1 35 -1 34 C-1 34.66 -1 35.32 -1 36 C-1.66 35.67 -2.32 35.34 -3 35 C-3 34.01 -3 33.02 -3 32 C-2.34 32 -1.68 32 -1 32 C-1.16298584 31.44280273 -1.32597168 30.88560547 -1.49389648 30.31152344 C-2.0427175 27.80489661 -2.11329385 25.58019076 -2.09765625 23.015625 C-2.09443359 22.08105469 -2.09121094 21.14648438 -2.08789062 20.18359375 C-2.07951172 19.21550781 -2.07113281 18.24742188 -2.0625 17.25 C-2.05798828 16.26644531 -2.05347656 15.28289062 -2.04882812 14.26953125 C-2.03706483 11.84629209 -2.02062684 9.42317727 -2 7 C-2.66 6.67 -3.32 6.34 -4 6 C-2.69593116 3.98079663 -1.36176581 1.98075027 0 0 Z " fill="#8094A3" transform="translate(147,84)"/>
<path d="M0 0 C0.33 0 0.66 0 1 0 C1.33 3.96 1.66 7.92 2 12 C0.35 11.34 -1.3 10.68 -3 10 C-4.43576724 9.45375697 -5.87314194 8.91170979 -7.3125 8.375 C-8.529375 7.92125 -9.74625 7.4675 -11 7 C-11.1546875 7.9590625 -11.1546875 7.9590625 -11.3125 8.9375 C-11.539375 9.618125 -11.76625 10.29875 -12 11 C-12.99 11.33 -13.98 11.66 -15 12 C-15.99 13.485 -15.99 13.485 -17 15 C-17.66 14.67 -18.32 14.34 -19 14 C-18.67 13.01 -18.34 12.02 -18 11 C-18.99 11 -19.98 11 -21 11 C-20.6875 8.125 -20.6875 8.125 -20 5 C-19.01 4.34 -18.02 3.68 -17 3 C-16.67 5.31 -16.34 7.62 -16 10 C-15.01 10 -14.02 10 -13 10 C-13.020625 9.030625 -13.04125 8.06125 -13.0625 7.0625 C-13 4 -13 4 -12 3 C-10.00041636 2.95919217 -7.99954746 2.95745644 -6 3 C-5.34 4.32 -4.68 5.64 -4 7 C-3.01 7 -2.02 7 -1 7 C-0.67 4.69 -0.34 2.38 0 0 Z " fill="#1899DF" transform="translate(159,72)"/>
<path d="M0 0 C1.32 0 2.64 0 4 0 C6.25 3 6.25 3 8 6 C8.33 4.02 8.66 2.04 9 0 C9.66 0 10.32 0 11 0 C11 3.96 11 7.92 11 12 C9.68 12 8.36 12 7 12 C7 11.34 7 10.68 7 10 C6.34 10 5.68 10 5 10 C4.67 10.99 4.34 11.98 4 13 C2.68 13 1.36 13 0 13 C0 8.71 0 4.42 0 0 Z " fill="#1B2F43" transform="translate(55,120)"/>
<path d="M0 0 C2.52259061 1.97420135 2.9929808 2.96745642 3.6875 6.1875 C3.790625 7.115625 3.89375 8.04375 4 9 C2.7934375 9.556875 2.7934375 9.556875 1.5625 10.125 C-1.31172896 11.8109337 -1.31172896 11.8109337 -1.8125 15.1875 C-1.874375 16.115625 -1.93625 17.04375 -2 18 C-2.99 18 -3.98 18 -5 18 C-5 17.34 -5 16.68 -5 16 C-5.66 15.67 -6.32 15.34 -7 15 C-6.53482785 9.30164111 -5.15958895 5.78725598 -2 1 C-1.34 0.67 -0.68 0.34 0 0 Z " fill="#079DF5" transform="translate(148,64)"/>
<path d="M0 0 C0.99 0 1.98 0 3 0 C3.33 3.3 3.66 6.6 4 10 C5.32 10 6.64 10 8 10 C8 6.7 8 3.4 8 0 C9.32 0 10.64 0 12 0 C12.05391993 1.79133978 12.09275571 3.58313899 12.125 5.375 C12.14820312 6.37273437 12.17140625 7.37046875 12.1953125 8.3984375 C12 11 12 11 10 13 C6.5625 13.4375 6.5625 13.4375 3 13 C0.18126243 10.09033541 -0.15979168 7.58744626 -0.1875 3.6875 C-0.125625 2.470625 -0.06375 1.25375 0 0 Z " fill="#295170" transform="translate(105,120)"/>
<path d="M0 0 C0.66 0 1.32 0 2 0 C4.51175405 8.47716992 4.50891884 16.3237167 3 25 C2.01 25 1.02 25 0 25 C-1.67868889 21.64262223 -1.14241099 17.87572859 -1.125 14.1875 C-1.12886719 13.37990234 -1.13273438 12.57230469 -1.13671875 11.74023438 C-1.13009448 7.69612048 -1.0084017 3.94557174 0 0 Z " fill="#97A8B8" transform="translate(164,57)"/>
<path d="M0 0 C0.99 0.33 1.98 0.66 3 1 C2.01 2.32 1.02 3.64 0 5 C0.66 5 1.32 5 2 5 C2.70074844 8.153368 3 10.72724974 3 14 C4.9600281 15.63676257 4.9600281 15.63676257 7 17 C7 17.66 7 18.32 7 19 C6.34 19 5.68 19 5 19 C5 19.66 5 20.32 5 21 C4.01 20.67 3.02 20.34 2 20 C2 19.34 2 18.68 2 18 C1.34 18 0.68 18 0 18 C-3.16296639 13.15670771 -4.90154874 9.97276043 -4 4 C-2 1.5625 -2 1.5625 0 0 Z " fill="#A0B2BF" transform="translate(126,64)"/>
<path d="M0 0 C0.928125 0.20625 1.85625 0.4125 2.8125 0.625 C2.8125 1.615 2.8125 2.605 2.8125 3.625 C1.1625 3.955 -0.4875 4.285 -2.1875 4.625 C-0.9809375 4.934375 -0.9809375 4.934375 0.25 5.25 C1.095625 5.70375 1.94125 6.1575 2.8125 6.625 C3.625 9.75 3.625 9.75 3.8125 12.625 C0.85585481 14.1033226 -1.92979737 13.68532783 -5.1875 13.625 C-5.5175 12.305 -5.8475 10.985 -6.1875 9.625 C-3.2175 10.12 -3.2175 10.12 -0.1875 10.625 C-0.1875 9.965 -0.1875 9.305 -0.1875 8.625 C-0.991875 8.480625 -1.79625 8.33625 -2.625 8.1875 C-5.1875 7.625 -5.1875 7.625 -6.1875 6.625 C-6.4375 4.1875 -6.4375 4.1875 -6.1875 1.625 C-3.1875 -0.375 -3.1875 -0.375 0 0 Z " fill="#233F54" transform="translate(75.1875,119.375)"/>
<path d="M0 0 C1.21816406 0.03480469 1.21816406 0.03480469 2.4609375 0.0703125 C3.68683594 0.09738281 3.68683594 0.09738281 4.9375 0.125 C5.87722656 0.15980469 5.87722656 0.15980469 6.8359375 0.1953125 C6.8359375 1.5153125 6.8359375 2.8353125 6.8359375 4.1953125 C7.4959375 4.1953125 8.1559375 4.1953125 8.8359375 4.1953125 C8.5234375 6.5703125 8.5234375 6.5703125 7.8359375 9.1953125 C6.8459375 9.8553125 5.8559375 10.5153125 4.8359375 11.1953125 C4.8359375 10.5353125 4.8359375 9.8753125 4.8359375 9.1953125 C4.0728125 9.0509375 3.3096875 8.9065625 2.5234375 8.7578125 C-0.1640625 8.1953125 -0.1640625 8.1953125 -3.1640625 7.1953125 C-3.7890625 4.8203125 -3.7890625 4.8203125 -4.1640625 2.1953125 C-2.1640625 0.1953125 -2.1640625 0.1953125 0 0 Z " fill="#02548D" transform="translate(65.1640625,60.8046875)"/>
<path d="M0 0 C2.27145346 0.03300659 4.54240126 0.10240005 6.8125 0.1875 C8.70935547 0.23970703 8.70935547 0.23970703 10.64453125 0.29296875 C14 1 14 1 15.94921875 3.42578125 C17 6 17 6 17 8 C13.04 8 9.08 8 5 8 C4.67 7.34 4.34 6.68 4 6 C1.98330173 4.86649466 1.98330173 4.86649466 0 4 C0 2.68 0 1.36 0 0 Z " fill="#0D3355" transform="translate(56,90)"/>
<path d="M0 0 C0.33 0 0.66 0 1 0 C0.979375 0.95519531 0.95875 1.91039062 0.9375 2.89453125 C1.09652593 12.86346913 3.06681989 18.40350881 10 26 C9.67 26.66 9.34 27.32 9 28 C8.13375 26.824375 8.13375 26.824375 7.25 25.625 C5.03031695 22.69177764 5.03031695 22.69177764 1 21 C1 34.86 1 48.72 1 63 C0.67 63 0.34 63 0 63 C0 42.21 0 21.42 0 0 Z " fill="#668297" transform="translate(101,51)"/>
<path d="M0 0 C0.66 0 1.32 0 2 0 C2 0.66 2 1.32 2 2 C2.99 2.33 3.98 2.66 5 3 C6.16796875 5.65234375 6.16796875 5.65234375 7.1875 8.9375 C7.70376953 10.55978516 7.70376953 10.55978516 8.23046875 12.21484375 C9 15 9 15 9 17 C9.99 17.33 10.98 17.66 12 18 C12.12375 19.134375 12.2475 20.26875 12.375 21.4375 C12.58125 22.613125 12.7875 23.78875 13 25 C13.66 25.33 14.32 25.66 15 26 C15 27.65 15 29.3 15 31 C14.34 31.33 13.68 31.66 13 32 C10.19596547 26.69236321 8.00080474 21.41063998 6.01171875 15.75 C4.78223023 12.40806981 3.3438063 9.19496561 1.83203125 5.97265625 C0.99985566 3.99965778 0.46237338 2.08768589 0 0 Z " fill="#11304B" transform="translate(66,71)"/>
<path d="M0 0 C1.8359375 0.19921875 1.8359375 0.19921875 4 1 C5.4140625 3.14453125 5.4140625 3.14453125 6.625 5.8125 C7.02976562 6.68519531 7.43453125 7.55789062 7.8515625 8.45703125 C8.23054688 9.29621094 8.60953125 10.13539062 9 11 C9.66037001 12.33646312 10.32467352 13.67103184 11 15 C11.99 15 12.98 15 14 15 C14.226875 15.639375 14.45375 16.27875 14.6875 16.9375 C15.85250896 19.27193661 15.85250896 19.27193661 18.625 19.75 C19.40875 19.8325 20.1925 19.915 21 20 C20.67 20.99 20.34 21.98 20 23 C17.234375 23.296875 17.234375 23.296875 14 23 C11.953125 20.953125 11.953125 20.953125 10.25 18.25 C9.67765625 17.36828125 9.1053125 16.4865625 8.515625 15.578125 C7 13 7 13 5.984375 10.796875 C4.99540617 8.66239223 4.99540617 8.66239223 2 7 C0.8125 3.375 0.8125 3.375 0 0 Z " fill="#164162" transform="translate(114,81)"/>
<path d="M0 0 C0.99 0 1.98 0 3 0 C3 0.66 3 1.32 3 2 C4.32 2 5.64 2 7 2 C9 4 9 4 9.1953125 7.0390625 C9.17210937 8.22242187 9.14890625 9.40578125 9.125 10.625 C9.10695312 11.81351563 9.08890625 13.00203125 9.0703125 14.2265625 C9.04710937 15.14179687 9.02390625 16.05703125 9 17 C7.68 17 6.36 17 5 17 C5 15.35 5 13.7 5 12 C4.34 12 3.68 12 3 12 C2.67 8.7 2.34 5.4 2 2 C1.34 2 0.68 2 0 2 C0 1.34 0 0.68 0 0 Z " fill="#097CC3" transform="translate(151,94)"/>
<path d="M0 0 C0.33 0.99 0.66 1.98 1 3 C-1.64 3 -4.28 3 -7 3 C-6.67 4.98 -6.34 6.96 -6 9 C-4.02 9 -2.04 9 0 9 C0 10.32 0 11.64 0 13 C-3.53677664 13.32152515 -5.3962104 13.4131192 -8.375 11.375 C-10.45406883 8.33636094 -10.46155369 6.61550392 -10 3 C-7.00991906 -1.48512141 -4.87831759 -1.18661779 0 0 Z " fill="#0C1B29" transform="translate(37,120)"/>
<path d="M0 0 C0.99 0.99 1.98 1.98 3 3 C3.66 2.67 4.32 2.34 5 2 C5 2.66 5 3.32 5 4 C5.804375 4.2475 6.60875 4.495 7.4375 4.75 C8.283125 5.1625 9.12875 5.575 10 6 C10.625 7.9375 10.625 7.9375 11 10 C11.98020375 11.0194119 12.97803008 12.02246356 14 13 C14 13.66 14 14.32 14 15 C12.68 15.33 11.36 15.66 10 16 C9.51080078 15.25943359 9.51080078 15.25943359 9.01171875 14.50390625 C8.57472656 13.86324219 8.13773438 13.22257812 7.6875 12.5625 C7.04361328 11.60537109 7.04361328 11.60537109 6.38671875 10.62890625 C4.9965948 8.7114316 4.9965948 8.7114316 2 8 C2 7.34 2 6.68 2 6 C1.34 6 0.68 6 0 6 C0 5.01 0 4.02 0 3 C-0.66 2.67 -1.32 2.34 -2 2 C-1.34 2 -0.68 2 0 2 C0 1.34 0 0.68 0 0 Z " fill="#0379C5" transform="translate(109,65)"/>
<path d="M0 0 C0 0.99 0 1.98 0 3 C-1.98 3.33 -3.96 3.66 -6 4 C-5.67 5.65 -5.34 7.3 -5 9 C-3.02 9 -1.04 9 1 9 C1 9.99 1 10.98 1 12 C-1.73905345 13.36952673 -3.97087332 13.12621361 -7 13 C-7.66 12.67 -8.32 12.34 -9 12 C-9.51953125 10.0390625 -9.51953125 10.0390625 -9.8125 7.625 C-9.92207031 6.83351563 -10.03164062 6.04203125 -10.14453125 5.2265625 C-10 3 -10 3 -8.7421875 1.22265625 C-5.97206105 -0.7214011 -3.27319087 -0.18527496 0 0 Z " fill="#1D4059" transform="translate(129,120)"/>
<path d="M0 0 C4 0 4 0 6.25 2 C6.8275 2.66 7.405 3.32 8 4 C8.66 3.67 9.32 3.34 10 3 C9.67 4.65 9.34 6.3 9 8 C10.98 7.67 12.96 7.34 15 7 C15.33 7.99 15.66 8.98 16 10 C11.38 10 6.76 10 2 10 C1.34 6.7 0.68 3.4 0 0 Z " fill="#052446" transform="translate(81,104)"/>
<path d="M0 0 C0.99 0 1.98 0 3 0 C3 1.98 3 3.96 3 6 C7.29 6 11.58 6 16 6 C12.91027582 9.08972418 9.25171066 8.96334732 5 9 C1.9375 8.0625 1.9375 8.0625 0 7 C0 7.66 0 8.32 0 9 C-6.93 8.505 -6.93 8.505 -14 8 C-14 7.34 -14 6.68 -14 6 C-9.71 6 -5.42 6 -1 6 C-1.33 5.01 -1.66 4.02 -2 3 C-1.01 3.33 -0.02 3.66 1 4 C1.33 3.34 1.66 2.68 2 2 C1.34 2 0.68 2 0 2 C0 1.34 0 0.68 0 0 Z " fill="#7B8F9E" transform="translate(98,108)"/>
<path d="M0 0 C0.99 0.33 1.98 0.66 3 1 C2.34 4.3 1.68 7.6 1 11 C-0.32 10.34 -1.64 9.68 -3 9 C-4.65740715 8.62331656 -6.32345271 8.27942455 -8 8 C-8 6.02 -8 4.04 -8 2 C-5.36 2 -2.72 2 0 2 C0 1.34 0 0.68 0 0 Z " fill="#768897" transform="translate(38,121)"/>
<path d="M0 0 C0.33 0 0.66 0 1 0 C1.12117188 0.81984375 1.24234375 1.6396875 1.3671875 2.484375 C1.53476563 3.56203125 1.70234375 4.6396875 1.875 5.75 C2.03742188 6.81734375 2.19984375 7.8846875 2.3671875 8.984375 C2.93716445 11.70056147 3.52739555 13.66564924 5 16 C5.66 16.33 6.32 16.66 7 17 C7 17.99 7 18.98 7 20 C7.66 20 8.32 20 9 20 C9.99 23.3 10.98 26.6 12 30 C10.22840604 28.38946004 8.61739931 26.761524 7 25 C6.37609375 24.3296875 5.7521875 23.659375 5.109375 22.96875 C-1.0275874 15.48464951 -0.7809474 9.29699288 0 0 Z " fill="#165F8C" transform="translate(102,51)"/>
<path d="M0 0 C3.3 0 6.6 0 10 0 C9.67 1.32 9.34 2.64 9 4 C8.34 4 7.68 4 7 4 C7 6.97 7 9.94 7 13 C5.68 13 4.36 13 3 13 C3 9.7 3 6.4 3 3 C2.01 3 1.02 3 0 3 C0 2.01 0 1.02 0 0 Z " fill="#224F6A" transform="translate(132,120)"/>
<path d="M0 0 C0.66 0.66 1.32 1.32 2 2 C1.625 4.125 1.625 4.125 1 6 C1 5.01 1 4.02 1 3 C-0.65 3 -2.3 3 -4 3 C-5.01111093 6.04913228 -5.01111093 6.04913228 -4 9 C-2.02 9 -0.04 9 2 9 C1.67 9.99 1.34 10.98 1 12 C-5.30818278 12.35706695 -5.30818278 12.35706695 -7.9375 11 C-9.67278693 7.73357754 -9.17982715 4.65648548 -9 1 C-5.98675805 -0.50662097 -3.31713623 -0.17770373 0 0 Z " fill="#2B6A96" transform="translate(159,121)"/>
<path d="M0 0 C4.29 0 8.58 0 13 0 C14.010625 1.753125 15.02125 3.50625 16.0625 5.3125 C16.63097656 6.29863281 17.19945313 7.28476563 17.78515625 8.30078125 C19 11 19 11 18 14 C15.4345406 11.4345406 15.45953913 9.52313332 15 6 C14.34 6 13.68 6 13 6 C13 4.68 13 3.36 13 2 C11.54077307 2.11409593 10.08259402 2.24165544 8.625 2.375 C7.81289062 2.44460937 7.00078125 2.51421875 6.1640625 2.5859375 C3.79665809 2.82892588 3.79665809 2.82892588 2 5 C1.30251417 6.31747324 0.63040043 7.64914193 0 9 C-1.125 2.25 -1.125 2.25 0 0 Z " fill="#165887" transform="translate(59,59)"/>
<path d="M0 0 C1.485 0.99 1.485 0.99 3 2 C5.21729717 2.2784628 5.21729717 2.2784628 7.5625 2.1875 C8.34753906 2.18105469 9.13257813 2.17460937 9.94140625 2.16796875 C12.06354672 2.12364089 12.06354672 2.12364089 14 1 C14.33 1.66 14.66 2.32 15 3 C17.02463255 3.65213292 17.02463255 3.65213292 19 4 C19 2.68 19 1.36 19 0 C22 1 22 1 23 3 C25.01669827 4.13350534 25.01669827 4.13350534 27 5 C25.35 5.33 23.7 5.66 22 6 C22 5.34 22 4.68 22 4 C21.34 4 20.68 4 20 4 C19.67 4.66 19.34 5.32 19 6 C17.700625 5.814375 16.40125 5.62875 15.0625 5.4375 C12.91424457 5.1018371 12.91424457 5.1018371 11 5 C10.67 5.33 10.34 5.66 10 6 C8.47480724 5.91062197 6.95318071 5.75462854 5.4375 5.5625 C4.19806641 5.40974609 4.19806641 5.40974609 2.93359375 5.25390625 C2.29550781 5.17011719 1.65742188 5.08632812 1 5 C0.67 3.35 0.34 1.7 0 0 Z " fill="#7D8F9D" transform="translate(150,130)"/>
<path d="M0 0 C0.66 0 1.32 0 2 0 C1.34 2.97 0.68 5.94 0 9 C-0.66 9 -1.32 9 -2 9 C-2.29003906 9.88751953 -2.29003906 9.88751953 -2.5859375 10.79296875 C-3.94414719 14.9146645 -5.32050585 18.9950524 -7 23 C-7.99 23 -8.98 23 -10 23 C-8.25041085 17.1547817 -6.10583829 12.24110211 -3 7 C-1.92891703 4.68991004 -0.9626553 2.35850549 0 0 Z " fill="#1C4162" transform="translate(57,64)"/>
<path d="M0 0 C0.66 0 1.32 0 2 0 C2 1.65 2 3.3 2 5 C5.96 5 9.92 5 14 5 C13.67 5.66 13.34 6.32 13 7 C0.31182796 10.65591398 0.31182796 10.65591398 -3 9 C-3 8.34 -3 7.68 -3 7 C-2.34 7 -1.68 7 -1 7 C-0.67 4.69 -0.34 2.38 0 0 Z " fill="#8596A5" transform="translate(33,109)"/>
<path d="M0 0 C0.99 0 1.98 0 3 0 C2.855625 1.07636719 2.71125 2.15273438 2.5625 3.26171875 C1.4044452 12.24644873 0.71599752 20.92769861 1 30 C-3.40618587 23.3907212 -2.35735825 13.68320232 -2 6 C-1.33333333 4 -0.66666667 2 0 0 Z " fill="#9FB0BF" transform="translate(99,48)"/>
<path d="M0 0 C0.99 0.66 1.98 1.32 3 2 C3.12375 2.66 3.2475 3.32 3.375 4 C3.684375 4.99 3.684375 4.99 4 6 C6.49034386 7.29660434 6.49034386 7.29660434 9 8 C9 8.66 9 9.32 9 10 C6.03 9.505 6.03 9.505 3 9 C3.33 9.99 3.66 10.98 4 12 C6.64 12 9.28 12 12 12 C12 12.66 12 13.32 12 14 C6.87416389 14.10251672 2.05002222 14.03590199 -3 13 C-2.01 12.67 -1.02 12.34 0 12 C0 8.04 0 4.08 0 0 Z " fill="#6B8497" transform="translate(66,120)"/>
<path d="M0 0 C2.47619668 2.47619668 2.61597395 4.02734558 3.25 7.4375 C3.44078125 8.40558594 3.6315625 9.37367187 3.828125 10.37109375 C4 13 4 13 2 16 C1.34 16 0.68 16 0 16 C0 14.35 0 12.7 0 11 C-0.66 11 -1.32 11 -2 11 C-2 7.7 -2 4.4 -2 1 C-1.34 0.67 -0.68 0.34 0 0 Z " fill="#7FA6BE" transform="translate(177,117)"/>
<path d="M0 0 C0.33 0.66 0.66 1.32 1 2 C-0.19749012 4.55168883 -1.44566789 6.97905239 -2.8125 9.4375 C-3.18181641 10.11876953 -3.55113281 10.80003906 -3.93164062 11.50195312 C-5.52739191 14.42701967 -7.14899359 17.22349038 -9 20 C-9.66 20 -10.32 20 -11 20 C-11.99 22.475 -11.99 22.475 -13 25 C-14 22 -14 22 -12.453125 18.8203125 C-11.72904793 17.58246016 -10.99418614 16.35086827 -10.25 15.125 C-9.8890625 14.51269531 -9.528125 13.90039062 -9.15625 13.26953125 C-8.4451974 12.06640964 -7.72890953 10.86636468 -7.00708008 9.66967773 C-6.10623985 8.17613923 -5.22191053 6.6726709 -4.33984375 5.16796875 C-3.07301107 3.11813744 -1.78011204 1.61057756 0 0 Z " fill="#377DAA" transform="translate(148,59)"/>
<path d="M0 0 C0.33 0 0.66 0 1 0 C1 2.31 1 4.62 1 7 C0.34 6.67 -0.32 6.34 -1 6 C-5.80193682 11.94282252 -9.48785211 18.22479272 -13 25 C-14 22 -14 22 -13.25 20.08984375 C-11.44398575 17.07041368 -9.44593993 14.20353866 -7.4375 11.31640625 C-5.96699267 8.94681156 -4.95875204 6.61352118 -4 4 C-3.01 4 -2.02 4 -1 4 C-0.67 2.68 -0.34 1.36 0 0 Z " fill="#2A6A90" transform="translate(148,79)"/>
<path d="M0 0 C3.3 0 6.6 0 10 0 C10 0.66 10 1.32 10 2 C9.01 2 8.02 2 7 2 C7 5.63 7 9.26 7 13 C6.01 13 5.02 13 4 13 C4 9.7 4 6.4 4 3 C2.68 3 1.36 3 0 3 C0 2.01 0 1.02 0 0 Z " fill="#17354F" transform="translate(80,120)"/>
<path d="M0 0 C0.33 0 0.66 0 1 0 C1 2.64 1 5.28 1 8 C1.66 8 2.32 8 3 8 C3 9.98 3 11.96 3 14 C1.35 13.67 -0.3 13.34 -2 13 C-2.12375 12.360625 -2.2475 11.72125 -2.375 11.0625 C-2.58125 10.381875 -2.7875 9.70125 -3 9 C-3.66 8.67 -4.32 8.34 -5 8 C-4.67 6.68 -4.34 5.36 -4 4 C-2.515 4.99 -2.515 4.99 -1 6 C-1.020625 5.195625 -1.04125 4.39125 -1.0625 3.5625 C-1 1 -1 1 0 0 Z " fill="#296287" transform="translate(174,120)"/>
<path d="M0 0 C2 2 2 2 2.22705078 4.61376953 C2.21657715 5.69255371 2.20610352 6.77133789 2.1953125 7.8828125 C2.18886719 9.04941406 2.18242188 10.21601562 2.17578125 11.41796875 C2.15902344 12.64128906 2.14226562 13.86460938 2.125 15.125 C2.11597656 16.35605469 2.10695313 17.58710937 2.09765625 18.85546875 C2.07402548 21.90383815 2.04108054 24.95182382 2 28 C1.01 28 0.02 28 -1 28 C-1 28.66 -1 29.32 -1 30 C-0.34 30 0.32 30 1 30 C0.67 30.99 0.34 31.98 0 33 C-0.33 32.34 -0.66 31.68 -1 31 C-1.66 31 -2.32 31 -3 31 C-2.67 28.69 -2.34 26.38 -2 24 C-1.34 24 -0.68 24 0 24 C0 16.08 0 8.16 0 0 Z " fill="#8FA2B2" transform="translate(99,80)"/>
<path d="M0 0 C8.05616354 6.24763703 13.17052816 14.11377182 18 23 C17.01 23 16.02 23 15 23 C14.8453125 22.0409375 14.8453125 22.0409375 14.6875 21.0625 C14.460625 20.381875 14.23375 19.70125 14 19 C13.01 18.67 12.02 18.34 11 18 C10.7834375 17.0409375 10.7834375 17.0409375 10.5625 16.0625 C10.376875 15.381875 10.19125 14.70125 10 14 C9.0409375 13.566875 9.0409375 13.566875 8.0625 13.125 C5.03501719 11.47364574 5.02530865 9.20408954 4 6 C2.70529025 4.62913085 1.37849103 3.28659163 0 2 C0 1.34 0 0.68 0 0 Z " fill="#207DB5" transform="translate(108,57)"/>
<path d="M0 0 C3.96 0 7.92 0 12 0 C12 7.92 12 15.84 12 24 C11.67 24 11.34 24 11 24 C10.67 17.07 10.34 10.14 10 3 C7.03 2.67 4.06 2.34 1 2 C0.34 3.65 -0.32 5.3 -1 7 C-1.33 6.34 -1.66 5.68 -2 5 C-1.34 3.35 -0.68 1.7 0 0 Z " fill="#53B8D6" transform="translate(149,58)"/>
<path d="M0 0 C1.98 0 3.96 0 6 0 C6.56638908 4.81430721 4.82561627 7.20307814 2 11 C0.68 10.34 -0.64 9.68 -2 9 C-1.42655063 6.13275314 -1.1385485 5.1385485 1 3 C0.67 2.01 0.34 1.02 0 0 Z " fill="#9CABB0" transform="translate(136,64)"/>
<path d="M0 0 C0.66 0 1.32 0 2 0 C2 0.66 2 1.32 2 2 C2.66 2 3.32 2 4 2 C4 2.66 4 3.32 4 4 C5.32 4 6.64 4 8 4 C8 4.66 8 5.32 8 6 C2.69276568 7.42705634 -1.53891111 8.4002792 -7 7 C-7 6.67 -7 6.34 -7 6 C-5.35 6 -3.7 6 -2 6 C-1.855625 5.195625 -1.71125 4.39125 -1.5625 3.5625 C-1 1 -1 1 0 0 Z " fill="#9AB2C5" transform="translate(80,112)"/>
<path d="M0 0 C0.33 0 0.66 0 1 0 C1.04898438 0.94617188 1.09796875 1.89234375 1.1484375 2.8671875 C1.72553242 13.29487948 2.76389239 23.63109734 4 34 C1 32 1 32 0.31640625 28.65625 C-0.19819929 22.9504482 -0.10699954 17.2233251 -0.0625 11.5 C-0.05798828 10.39140625 -0.05347656 9.2828125 -0.04882812 8.140625 C-0.03713158 5.42702601 -0.02074086 2.71354239 0 0 Z " fill="#113B5D" transform="translate(102,72)"/>
<path d="M0 0 C1.32 0.33 2.64 0.66 4 1 C3.01 1 2.02 1 1 1 C1.66 4.63 2.32 8.26 3 12 C5.31 12.66 7.62 13.32 10 14 C10 14.33 10 14.66 10 15 C2.375 16.25 2.375 16.25 -1 14 C-2.59982395 8.83133801 -1.47484414 5.03182119 0 0 Z " fill="#7590A6" transform="translate(104,119)"/>
<path d="M0 0 C0 0.66 0 1.32 0 2 C0.66 2.33 1.32 2.66 2 3 C1.34 4.32 0.68 5.64 0 7 C-2.16874252 6.49396008 -3.99967627 6.00016187 -6 5 C-6 5.66 -6 6.32 -6 7 C-5.34 7.33 -4.68 7.66 -4 8 C-5.32 8 -6.64 8 -8 8 C-8 5.69 -8 3.38 -8 1 C-6.68 1 -5.36 1 -4 1 C-2 0 -2 0 0 0 Z " fill="#046FB1" transform="translate(138,89)"/>
<path d="M0 0 C2.71595986 3.1540179 3.96846241 4.87384964 5 9 C2.03 9 -0.94 9 -4 9 C-4.33 8.01 -4.66 7.02 -5 6 C-4.34 6 -3.68 6 -3 6 C-2.690625 5.38125 -2.38125 4.7625 -2.0625 4.125 C-1.375 2.75 -0.6875 1.375 0 0 Z " fill="#A0B3C4" transform="translate(66,82)"/>
<path d="M0 0 C2 2 2 2 2.125 5.625 C2.08375 6.73875 2.0425 7.8525 2 9 C2.99 9.33 3.98 9.66 5 10 C4.67 11.32 4.34 12.64 4 14 C2.35 13.67 0.7 13.34 -1 13 C-1.02686553 11.02090602 -1.04633375 9.04171029 -1.0625 7.0625 C-1.07410156 5.96035156 -1.08570313 4.85820313 -1.09765625 3.72265625 C-1 1 -1 1 0 0 Z " fill="#9CA6B5" transform="translate(165,102)"/>
<path d="M0 0 C2.30874711 2.16614803 4.05290181 4.39206608 5.75 7.0625 C6.19859375 7.75472656 6.6471875 8.44695312 7.109375 9.16015625 C7.40328125 9.76730469 7.6971875 10.37445313 8 11 C7.67 11.66 7.34 12.32 7 13 C5.35 12.01 3.7 11.02 2 10 C1.67 10.99 1.34 11.98 1 13 C1 10.69 1 8.38 1 6 C0.34 6 -0.32 6 -1 6 C-0.67 4.02 -0.34 2.04 0 0 Z " fill="#7B8C9D" transform="translate(118,89)"/>
<path d="M0 0 C0.66 0 1.32 0 2 0 C2 0.66 2 1.32 2 2 C6.62 2 11.24 2 16 2 C16 2.66 16 3.32 16 4 C14.77023438 4.07347656 14.77023438 4.07347656 13.515625 4.1484375 C12.43796875 4.22320312 11.3603125 4.29796875 10.25 4.375 C8.64898437 4.47941406 8.64898437 4.47941406 7.015625 4.5859375 C4.19793568 4.9728223 2.4169634 5.55686166 0 7 C-0.38133299 5.0085944 -0.71325582 3.00720923 -1 1 C-0.67 0.67 -0.34 0.34 0 0 Z " fill="#91ABBD" transform="translate(145,54)"/>
<path d="M0 0 C0.33 0 0.66 0 1 0 C1 1.65 1 3.3 1 5 C3.97 5.495 3.97 5.495 7 6 C7.33 7.32 7.66 8.64 8 10 C8.66 10 9.32 10 10 10 C10 10.66 10 11.32 10 12 C6.73045798 11.43628586 5.17424117 10.50037734 3 8 C3 9.32 3 10.64 3 12 C2.01 12 1.02 12 0 12 C0 8.04 0 4.08 0 0 Z " fill="#152D46" transform="translate(93,121)"/>
<path d="M0 0 C1.32 0 2.64 0 4 0 C4.33 1.98 4.66 3.96 5 6 C2.04335481 7.4783226 -0.74229737 7.06032783 -4 7 C-4.33 5.68 -4.66 4.36 -5 3 C-2.03 3.495 -2.03 3.495 1 4 C0.67 2.68 0.34 1.36 0 0 Z " fill="#1A3245" transform="translate(74,126)"/>
<path d="M0 0 C0.77472656 0.00451172 1.54945313 0.00902344 2.34765625 0.01367188 C4.23180524 0.02530242 6.11591365 0.04323094 8 0.0625 C7.67 0.7225 7.34 1.3825 7 2.0625 C3.9375 2.4765625 3.9375 2.4765625 0 2.6875 C-0.67683838 2.72544678 -1.35367676 2.76339355 -2.05102539 2.80249023 C-7.04123004 3.06500726 -12.00497215 3.15013207 -17 3.0625 C-17 2.4025 -17 1.7425 -17 1.0625 C-11.28094617 0.23713655 -5.7732851 -0.06503701 0 0 Z " fill="#7AA9C7" transform="translate(137,117.9375)"/>
<path d="M0 0 C2.25162472 1.04539719 4.14589161 2.11156417 6.125 3.625 C7.88127926 5.19712122 7.88127926 5.19712122 10 5 C10 4.34 10 3.68 10 3 C12.475 3.99 12.475 3.99 15 5 C13.515 7.475 13.515 7.475 12 10 C10.35 9.67 8.7 9.34 7 9 C6.67 7.68 6.34 6.36 6 5 C5.01 5 4.02 5 3 5 C1.3125 2.5 1.3125 2.5 0 0 Z " fill="#08609C" transform="translate(122,91)"/>
<path d="M0 0 C0.99 0 1.98 0 3 0 C3.09796875 0.69867188 3.1959375 1.39734375 3.296875 2.1171875 C3.44640625 3.02726562 3.5959375 3.93734375 3.75 4.875 C3.88921875 5.77992187 4.0284375 6.68484375 4.171875 7.6171875 C4.77983843 10.16214243 4.77983843 10.16214243 7.078125 11.3203125 C7.71234375 11.54460937 8.3465625 11.76890625 9 12 C7.02 12.33 5.04 12.66 3 13 C-0.36055646 8.51925805 -0.27429625 5.39449293 0 0 Z " fill="#112E45" transform="translate(105,120)"/>
<path d="M0 0 C0.66 0 1.32 0 2 0 C2 0.66 2 1.32 2 2 C2.66 2 3.32 2 4 2 C4 2.66 4 3.32 4 4 C4.598125 4.28875 5.19625 4.5775 5.8125 4.875 C8 6 8 6 11 8 C11 8.66 11 9.32 11 10 C10.34 10 9.68 10 9 10 C9 10.66 9 11.32 9 12 C8.01 11.67 7.02 11.34 6 11 C6 10.34 6 9.68 6 9 C5.34 9 4.68 9 4 9 C0 2.25 0 2.25 0 0 Z " fill="#97AEC0" transform="translate(122,73)"/>
<path d="M0 0 C0.33 0 0.66 0 1 0 C0.979375 0.95519531 0.95875 1.91039062 0.9375 2.89453125 C1.09652593 12.86346913 3.06681989 18.40350881 10 26 C9.67 26.66 9.34 27.32 9 28 C8.13375 26.824375 8.13375 26.824375 7.25 25.625 C5.26317439 22.93520461 5.26317439 22.93520461 2.8125 22 C1 21 1 21 0.390625 18.95703125 C-0.10668197 15.19241747 -0.10651021 11.47576309 -0.0625 7.6875 C-0.05798828 6.94693359 -0.05347656 6.20636719 -0.04882812 5.44335938 C-0.03712175 3.62887101 -0.01918898 1.81442466 0 0 Z " fill="#4C7895" transform="translate(101,51)"/>
<path d="M0 0 C5.875 2.75 5.875 2.75 7 5 C6.01 6.485 6.01 6.485 5 8 C4.01 7.34 3.02 6.68 2 6 C-0.27912938 5.54605448 -0.27912938 5.54605448 -2.6875 5.375 C-3.89986328 5.26285156 -3.89986328 5.26285156 -5.13671875 5.1484375 C-5.75160156 5.09945312 -6.36648437 5.05046875 -7 5 C-5 2 -5 2 -2.9375 1.375 C-2.298125 1.25125 -1.65875 1.1275 -1 1 C-0.67 0.67 -0.34 0.34 0 0 Z " fill="#95B2C0" transform="translate(98,114)"/>
<path d="M0 0 C5.39612995 4.36829567 6.96481339 12.63462913 9 19 C7.35 18.67 5.7 18.34 4 18 C4.33 17.01 4.66 16.02 5 15 C4.34 14.67 3.68 14.34 3 14 C3.33 12.35 3.66 10.7 4 9 C3.34 9 2.68 9 2 9 C1.01 6.36 0.02 3.72 -1 1 C-0.67 0.67 -0.34 0.34 0 0 Z " fill="#778DA1" transform="translate(66,74)"/>
<path d="M0 0 C0.33 0 0.66 0 1 0 C1.33 2.97 1.66 5.94 2 9 C5.3 9 8.6 9 12 9 C12.33 8.34 12.66 7.68 13 7 C13.33 7.99 13.66 8.98 14 10 C10.60602809 12.40406344 7.82722497 12.09203815 3.90625 11.4921875 C1.44189038 10.85589793 -0.17264897 9.7512114 -2 8 C-1.125 1.125 -1.125 1.125 0 0 Z " fill="#6D899B" transform="translate(118,123)"/>
<path d="M0 0 C1.2065625 0.0309375 1.2065625 0.0309375 2.4375 0.0625 C3.0625 2.4375 3.0625 2.4375 3.4375 5.0625 C2.7775 5.7225 2.1175 6.3825 1.4375 7.0625 C-1.1875 6.6875 -1.1875 6.6875 -3.5625 6.0625 C-3.605221 4.39638095 -3.60313832 2.72867115 -3.5625 1.0625 C-2.5625 0.0625 -2.5625 0.0625 0 0 Z " fill="#8293A4" transform="translate(46.5625,122.9375)"/>
<path d="M0 0 C4 4 4 4 4 6 C3.34 6 2.68 6 2 6 C1.67 13.59 1.34 21.18 1 29 C0.67 29 0.34 29 0 29 C0 19.43 0 9.86 0 0 Z " fill="#789DB7" transform="translate(114,85)"/>
<path d="M0 0 C2.65204896 0.36834013 3.73840056 0.6867691 5.484375 2.77734375 C5.90203125 3.49019531 6.3196875 4.20304687 6.75 4.9375 C7.17796875 5.64777344 7.6059375 6.35804687 8.046875 7.08984375 C9 9 9 9 9 11 C5.09818474 9.7345464 3.05518966 8.59658191 1 5 C0.3125 2.25 0.3125 2.25 0 0 Z " fill="#0D69AA" transform="translate(111,73)"/>
<path d="M0 0 C4.42323682 0.58265272 7.5155864 2.26766211 11.3125 4.5625 C12.38113281 5.20316406 13.44976562 5.84382813 14.55078125 6.50390625 C15.35902344 6.99761719 16.16726562 7.49132812 17 8 C16.01 8.495 16.01 8.495 15 9 C13.65765258 8.35167476 12.32558856 7.68193635 11 7 C9.46502061 6.69352801 7.92246066 6.42298314 6.375 6.1875 C3.99609375 5.70703125 3.99609375 5.70703125 2 5 C0.4375 2.375 0.4375 2.375 0 0 Z " fill="#386072" transform="translate(159,84)"/>
<path d="M0 0 C0.144375 0.598125 0.28875 1.19625 0.4375 1.8125 C0.8872439 3.56150404 1.42892341 5.28677023 2 7 C3.32 6.67 4.64 6.34 6 6 C6 6.66 6 7.32 6 8 C5.01 8.33 4.02 8.66 3 9 C2.01 10.485 2.01 10.485 1 12 C0.34 11.67 -0.32 11.34 -1 11 C-0.67 10.01 -0.34 9.02 0 8 C-0.99 8 -1.98 8 -3 8 C-2.25 2.25 -2.25 2.25 0 0 Z " fill="#0A8CD6" transform="translate(141,75)"/>
<path d="M0 0 C3 1 3 1 4 3 C5.32 2.34 6.64 1.68 8 1 C8.33 3.31 8.66 5.62 9 8 C8.67 7.34 8.34 6.68 8 6 C7.34 6 6.68 6 6 6 C5.67 6.66 5.34 7.32 5 8 C5 7.01 5 6.02 5 5 C4.34 5 3.68 5 3 5 C2.67 5.99 2.34 6.98 2 8 C0.23537317 4.91190305 0 3.76687864 0 0 Z " fill="#043C6D" transform="translate(73,80)"/>
<path d="M0 0 C2.475 0.495 2.475 0.495 5 1 C5 2.32 5 3.64 5 5 C5.99 5 6.98 5 8 5 C8 5.66 8 6.32 8 7 C7.01 7 6.02 7 5 7 C5 7.99 5 8.98 5 10 C4.34 10 3.68 10 3 10 C3 8.35 3 6.7 3 5 C2.01 5 1.02 5 0 5 C0 3.35 0 1.7 0 0 Z " fill="#049AF8" transform="translate(151,83)"/>
<path d="M0 0 C0.99 0 1.98 0 3 0 C3.33 0.99 3.66 1.98 4 3 C4.99 3 5.98 3 7 3 C7 4.65 7 6.3 7 8 C8.32 8.33 9.64 8.66 11 9 C11 9.99 11 10.98 11 12 C9.125 11.6875 9.125 11.6875 7 11 C5 8 5 8 5 5 C2.69 4.34 0.38 3.68 -2 3 C-1 1 -1 1 0 0 Z " fill="#A2B0C6" transform="translate(105,48)"/>
<path d="M0 0 C2.29160319 -0.02692484 4.58329546 -0.04636124 6.875 -0.0625 C8.15117187 -0.07410156 9.42734375 -0.08570312 10.7421875 -0.09765625 C14 0 14 0 16 1 C15.67 1.99 15.34 2.98 15 4 C14.67 3.67 14.34 3.34 14 3 C12.48530552 2.76807135 10.96245438 2.58784762 9.4375 2.4375 C8.61121094 2.35371094 7.78492188 2.26992187 6.93359375 2.18359375 C6.29550781 2.12300781 5.65742188 2.06242187 5 2 C4.67 2.99 4.34 3.98 4 5 C3.34 5 2.68 5 2 5 C2 4.01 2 3.02 2 2 C1.34 2 0.68 2 0 2 C0 1.34 0 0.68 0 0 Z " fill="#70A9C4" transform="translate(146,118)"/>
<path d="M0 0 C5.61 0 11.22 0 17 0 C16.67 0.66 16.34 1.32 16 2 C13.34765625 2.44921875 13.34765625 2.44921875 10.0625 2.6875 C8.44021484 2.81705078 8.44021484 2.81705078 6.78515625 2.94921875 C4 3 4 3 2 2 C2 2.66 2 3.32 2 4 C1.34 3.67 0.68 3.34 0 3 C0 2.01 0 1.02 0 0 Z " fill="#899CA3" transform="translate(144,116)"/>
<path d="M0 0 C2.48291009 3.01802003 3.91340355 5.89683437 5.25 9.5625 C5.60578125 10.51253906 5.9615625 11.46257812 6.328125 12.44140625 C7 15 7 15 6 18 C4 15 4 15 4 11 C3.34 11 2.68 11 2 11 C2 10.01 2 9.02 2 8 C1.34 8 0.68 8 0 8 C0 5.36 0 2.72 0 0 Z " fill="#7B8F9F" transform="translate(76,96)"/>
<path d="M0 0 C2.26332048 2.60281855 3.81333968 5.41528706 5.3125 8.5 C5.67988281 9.2528125 6.04726562 10.005625 6.42578125 10.78125 C7 13 7 13 6.10546875 15.28125 C5.74066406 15.8484375 5.37585938 16.415625 5 17 C4 15 3 13 2 11 C2.33 10.34 2.66 9.68 3 9 C2.34 9 1.68 9 1 9 C0.67 6.03 0.34 3.06 0 0 Z " fill="#164972" transform="translate(78,72)"/>
<path d="M0 0 C0.99 0 1.98 0 3 0 C3.33 3.96 3.66 7.92 4 12 C1 12 1 12 -2 11 C-1.34 11 -0.68 11 0 11 C0 7.37 0 3.74 0 0 Z " fill="#87A6BE" transform="translate(139,124)"/>
<path d="M0 0 C1.65 0 3.3 0 5 0 C4.01 0.33 3.02 0.66 2 1 C2 4.3 2 7.6 2 11 C0.68 11 -0.64 11 -2 11 C-3.60725635 7.78548731 -3.05748185 4.56387464 -3 1 C-2.67 1 -2.34 1 -2 1 C-1.67 2.65 -1.34 4.3 -1 6 C-0.67 6 -0.34 6 0 6 C0 4.02 0 2.04 0 0 Z " fill="#7895AA" transform="translate(111,119)"/>
<path d="M0 0 C0.99 0.495 0.99 0.495 2 1 C2 1.66 2 2.32 2 3 C2.99 2.67 3.98 2.34 5 2 C6.56118428 1.93259135 8.1250252 1.91485544 9.6875 1.9375 C10.89986328 1.95103516 10.89986328 1.95103516 12.13671875 1.96484375 C13.05904297 1.98224609 13.05904297 1.98224609 14 2 C14.33 2.99 14.66 3.98 15 5 C10.38 5 5.76 5 1 5 C0.67 3.35 0.34 1.7 0 0 Z " fill="#1A2D3E" transform="translate(82,109)"/>
<path d="M0 0 C0.66 0 1.32 0 2 0 C2 0.66 2 1.32 2 2 C2.99 2.33 3.98 2.66 5 3 C6.45007937 5.68264684 7.11784055 7.27331661 6.625 10.3125 C6.41875 10.869375 6.2125 11.42625 6 12 C2.50071836 9.66714557 2.3670902 8.79204931 1.3125 4.875 C1.06113281 3.96492188 0.80976562 3.05484375 0.55078125 2.1171875 C0.27814453 1.06917969 0.27814453 1.06917969 0 0 Z " fill="#143B5C" transform="translate(66,71)"/>
<path d="M0 0 C1.47906892 -0.02689216 2.95827483 -0.04634621 4.4375 -0.0625 C5.26121094 -0.07410156 6.08492187 -0.08570313 6.93359375 -0.09765625 C9 0 9 0 10 1 C10.07226502 2.85287502 10.0838122 4.70833878 10.0625 6.5625 C10.05347656 7.57441406 10.04445312 8.58632812 10.03515625 9.62890625 C10.02355469 10.41136719 10.01195312 11.19382812 10 12 C9.67 12 9.34 12 9 12 C8.67 8.7 8.34 5.4 8 2 C3.35413108 2.48484276 3.35413108 2.48484276 -1 4 C-0.67 2.68 -0.34 1.36 0 0 Z " fill="#20BCEF" transform="translate(150,60)"/>
<path d="M0 0 C0.66 0 1.32 0 2 0 C2 4.29 2 8.58 2 13 C2.99 13.33 3.98 13.66 5 14 C3.68 14.33 2.36 14.66 1 15 C-1.32086397 9.675665 -0.91457003 5.56157448 0 0 Z " fill="#7E8F9D" transform="translate(142,120)"/>
<path d="M0 0 C2.0625 2.3125 2.0625 2.3125 4 5 C3.67 5.99 3.34 6.98 3 8 C1.35 8 -0.3 8 -2 8 C-2.125 5.125 -2.125 5.125 -2 2 C-1.34 1.34 -0.68 0.68 0 0 Z " fill="#092B4E" transform="translate(92,104)"/>
<path d="M0 0 C4.29 0 8.58 0 13 0 C13 0.33 13 0.66 13 1 C8.545 1.495 8.545 1.495 4 2 C3.01 4.31 2.02 6.62 1 9 C-1.33760758 5.28732913 -0.9611085 4.80554252 0 0 Z " fill="#14527A" transform="translate(59,59)"/>
<path d="M0 0 C2.31 0.66 4.62 1.32 7 2 C7 2.99 7 3.98 7 5 C4.36 5.33 1.72 5.66 -1 6 C-0.67 4.02 -0.34 2.04 0 0 Z " fill="#93ADBE" transform="translate(125,124)"/>
<path d="M0 0 C0 0.99 0 1.98 0 3 C-0.94875 3.12375 -1.8975 3.2475 -2.875 3.375 C-6.08667191 3.71687177 -6.08667191 3.71687177 -8 6 C-8 5.34 -8 4.68 -8 4 C-8.66 3.67 -9.32 3.34 -10 3 C-7.29536552 -0.8183075 -4.37912428 -0.24787496 0 0 Z " fill="#214F74" transform="translate(129,120)"/>
<path d="M0 0 C5.42039575 -0.40652968 9.07015675 0.96006486 14 3 C14 3.66 14 4.32 14 5 C11.36 4.67 8.72 4.34 6 4 C6 3.34 6 2.68 6 2 C4.02 2 2.04 2 0 2 C0 1.34 0 0.68 0 0 Z " fill="#758E9A" transform="translate(164,90)"/>
<path d="M0 0 C2 1 2 1 3.1875 4.3125 C3.90649268 7.57562063 4.20286847 8.99282882 3 12 C-1.06153846 6.83076923 -1.06153846 6.83076923 -0.75 2.625 C-0.5025 1.75875 -0.255 0.8925 0 0 Z " fill="#8EB3CC" transform="translate(118,61)"/>
<path d="M0 0 C0.268125 0.61875 0.53625 1.2375 0.8125 1.875 C1.95556848 4.2995233 1.95556848 4.2995233 5 6 C8.12521833 6.16699232 8.12521833 6.16699232 11 6 C10.67 6.99 10.34 7.98 10 9 C3.6217765 9.36103152 3.6217765 9.36103152 1.0625 7.875 C-0.44484863 5.214973 -0.19986253 2.99793795 0 0 Z " fill="#173B59" transform="translate(150,124)"/>
<path d="M0 0 C0.598125 0.20625 1.19625 0.4125 1.8125 0.625 C0.8225 0.625 -0.1675 0.625 -1.1875 0.625 C-1.1875 4.915 -1.1875 9.205 -1.1875 13.625 C-3.24633923 9.50732154 -4.14915128 6.07506595 -5.1875 1.625 C-2.1875 -0.375 -2.1875 -0.375 0 0 Z " fill="#7C91A5" transform="translate(56.1875,119.375)"/>
<path d="M0 0 C1.32 0 2.64 0 4 0 C4.33 0.99 4.66 1.98 5 3 C4.01 3.33 3.02 3.66 2 4 C1.6278958 5.32303717 1.29369827 6.65737935 1 8 C0.01 8.495 0.01 8.495 -1 9 C-0.67 6.03 -0.34 3.06 0 0 Z " fill="#9BA5B4" transform="translate(165,93)"/>
<path d="M0 0 C1.98 0 3.96 0 6 0 C6 0.99 6 1.98 6 3 C3 5 3 5 -1 5 C-0.67 3.35 -0.34 1.7 0 0 Z " fill="#95A5B3" transform="translate(32,125)"/>
<path d="M0 0 C0.99 0 1.98 0 3 0 C3 4.29 3 8.58 3 13 C2.67 13 2.34 13 2 13 C2 11.35 2 9.7 2 8 C1.34 8 0.68 8 0 8 C0 5.36 0 2.72 0 0 Z " fill="#4D8CB6" transform="translate(175,120)"/>
<path d="M0 0 C2.97 0 5.94 0 9 0 C8.67 1.32 8.34 2.64 8 4 C7.34 4 6.68 4 6 4 C6 5.65 6 7.3 6 9 C5.67 9 5.34 9 5 9 C4.731875 7.88625 4.46375 6.7725 4.1875 5.625 C3.34190981 1.78159049 3.34190981 1.78159049 0 0 Z " fill="#2B6D94" transform="translate(133,120)"/>
<path d="M0 0 C0.99 0 1.98 0 3 0 C3 0.66 3 1.32 3 2 C4.32 1.67 5.64 1.34 7 1 C7 1.66 7 2.32 7 3 C4.36 3 1.72 3 -1 3 C-1 4.32 -1 5.64 -1 7 C-1.99 7.33 -2.98 7.66 -4 8 C-4 6.68 -4 5.36 -4 4 C-3.34 4 -2.68 4 -2 4 C-1.34 2.68 -0.68 1.36 0 0 Z " fill="#8EB0C6" transform="translate(121,116)"/>
<path d="M0 0 C0.99 0 1.98 0 3 0 C3 0.66 3 1.32 3 2 C3.66 2 4.32 2 5 2 C5 5.3 5 8.6 5 12 C4.34 12 3.68 12 3 12 C2.67 8.7 2.34 5.4 2 2 C1.34 2 0.68 2 0 2 C0 1.34 0 0.68 0 0 Z " fill="#0187D5" transform="translate(151,94)"/>
<path d="M0 0 C0.928125 0.495 1.85625 0.99 2.8125 1.5 C5.86527516 3.21289852 5.86527516 3.21289852 9 3 C8.67 4.65 8.34 6.3 8 8 C7.01 8 6.02 8 5 8 C4.67 7.34 4.34 6.68 4 6 C1.98330173 4.86649466 1.98330173 4.86649466 0 4 C0 2.68 0 1.36 0 0 Z " fill="#05294F" transform="translate(56,90)"/>
<path d="M0 0 C2.50037734 2.17424117 3.43628586 3.73045798 4 7 C3.01 7.495 3.01 7.495 2 8 C2 7.34 2 6.68 2 6 C0.02 6 -1.96 6 -4 6 C-2.25 1.125 -2.25 1.125 0 0 Z " fill="#1BA7EE" transform="translate(148,64)"/>
<path d="M0 0 C0.66 0 1.32 0 2 0 C2.433125 1.36125 2.433125 1.36125 2.875 2.75 C3.76531776 5.32202908 4.71494413 7.61346766 6 10 C3.13275314 9.42655063 2.1385485 9.1385485 0 7 C-0.125 3.375 -0.125 3.375 0 0 Z " fill="#0C1B29" transform="translate(40,123)"/>
<path d="M0 0 C0.99 0.495 0.99 0.495 2 1 C2 3.64 2 6.28 2 9 C4.31 9.66 6.62 10.32 9 11 C9 11.33 9 11.66 9 12 C6.36 12 3.72 12 1 12 C-0.26237731 9.47524538 -0.09856404 7.68799534 -0.0625 4.875 C-0.05347656 3.96492188 -0.04445313 3.05484375 -0.03515625 2.1171875 C-0.02355469 1.41851562 -0.01195313 0.71984375 0 0 Z " fill="#576676" transform="translate(26,122)"/>
<path d="M0 0 C0.66 0 1.32 0 2 0 C2.33 4.29 2.66 8.58 3 13 C2.01 13 1.02 13 0 13 C0 8.71 0 4.42 0 0 Z " fill="#1F486C" transform="translate(165,120)"/>
<path d="M0 0 C0.66 0 1.32 0 2 0 C2.33 4.29 2.66 8.58 3 13 C2.01 13 1.02 13 0 13 C0 8.71 0 4.42 0 0 Z " fill="#2A4E63" transform="translate(144,120)"/>
<path d="M0 0 C1.9451 2.91765 2.45276317 4.62537285 3 8 C1.02 8.33 -0.96 8.66 -3 9 C-2.01 6.03 -1.02 3.06 0 0 Z " fill="#8091A1" transform="translate(51,104)"/>
<path d="M0 0 C0 1.98 0 3.96 0 6 C-0.66 6 -1.32 6 -2 6 C-2 7.65 -2 9.3 -2 11 C-2.66 10.67 -3.32 10.34 -4 10 C-4.36814024 3.49618902 -4.36814024 3.49618902 -2.5625 1.0625 C-1 0 -1 0 0 0 Z " fill="#92A5B6" transform="translate(146,90)"/>
<path d="M0 0 C0.33 0.99 0.66 1.98 1 3 C0.34 3 -0.32 3 -1 3 C-1.66 5.64 -2.32 8.28 -3 11 C-3.66 11 -4.32 11 -5 11 C-5.125 7.625 -5.125 7.625 -5 4 C-3 2 -3 2 0 0 Z " fill="#9BB0BE" transform="translate(45,84)"/>
<path d="M0 0 C4.53118837 3.50080855 7.98261337 6.45218678 10 12 C9.67 12.66 9.34 13.32 9 14 C7.49412261 12.04594482 5.99521356 10.08718716 4.5 8.125 C4.07074219 7.56941406 3.64148438 7.01382813 3.19921875 6.44140625 C0 2.2265625 0 2.2265625 0 0 Z " fill="#074371" transform="translate(104,67)"/>
<path d="M0 0 C1.85776765 3.13498292 2.20140476 5.37471432 2 9 C1.34 9 0.68 9 0 9 C-0.33 9.66 -0.66 10.32 -1 11 C-1.66 10.67 -2.32 10.34 -3 10 C-2.39009109 6.44219804 -1.4216319 3.3171411 0 0 Z " fill="#042E56" transform="translate(53,77)"/>
<path d="M0 0 C1.65 0 3.3 0 5 0 C5.125 2.875 5.125 2.875 5 6 C4.34 6.66 3.68 7.32 3 8 C2.896875 7.360625 2.79375 6.72125 2.6875 6.0625 C2.460625 5.381875 2.23375 4.70125 2 4 C1.01 3.67 0.02 3.34 -1 3 C-0.67 2.01 -0.34 1.02 0 0 Z " fill="#9DB0C0" transform="translate(49,64)"/>
<path d="M0 0 C1.32 1.65 2.64 3.3 4 5 C0.26562152 5.87867729 -3.16774573 6.08912219 -7 6 C-3.375 3 -3.375 3 0 3 C0 2.01 0 1.02 0 0 Z " fill="#93A8B3" transform="translate(132,130)"/>
<path d="M0 0 C1.32 0 2.64 0 4 0 C4 0.99 4 1.98 4 3 C4.66 3 5.32 3 6 3 C6.33 4.65 6.66 6.3 7 8 C6.34 8 5.68 8 5 8 C4.67 6.68 4.34 5.36 4 4 C2.68 4 1.36 4 0 4 C0 2.68 0 1.36 0 0 Z " fill="#3E627D" transform="translate(96,123)"/>
<path d="M0 0 C0.99 0 1.98 0 3 0 C3 0.66 3 1.32 3 2 C0.69 2.33 -1.62 2.66 -4 3 C-4.33 4.65 -4.66 6.3 -5 8 C-5.66 7.67 -6.32 7.34 -7 7 C-6.67 5.35 -6.34 3.7 -6 2 C-4.02 2 -2.04 2 0 2 C0 1.34 0 0.68 0 0 Z " fill="#6A899E" transform="translate(129,121)"/>
<path d="M0 0 C1.65 0 3.3 0 5 0 C4.67 0.66 4.34 1.32 4 2 C6.64 2.33 9.28 2.66 12 3 C12 3.33 12 3.66 12 4 C2.58997722 5.51708428 2.58997722 5.51708428 -2 3 C-1.34 2.67 -0.68 2.34 0 2 C0 1.34 0 0.68 0 0 Z " fill="#84A1B5" transform="translate(88,116)"/>
<path d="M0 0 C0.33 0.66 0.66 1.32 1 2 C0.22265625 3.7265625 0.22265625 3.7265625 -0.9375 5.625 C-1.618125 6.73875 -2.29875 7.8525 -3 9 C-3.66 9 -4.32 9 -5 9 C-5.66 10.32 -6.32 11.64 -7 13 C-7 8.27380754 -4.34848184 4.49296204 -1.25 1.0625 C-0.8375 0.711875 -0.425 0.36125 0 0 Z " fill="#4D87A6" transform="translate(148,59)"/>
<path d="M0 0 C3.3 0 6.6 0 10 0 C10 0.99 10 1.98 10 3 C6.7 3 3.4 3 0 3 C0 2.01 0 1.02 0 0 Z " fill="#0F2744" transform="translate(103,111)"/>
<path d="M0 0 C1.65 1.65 3.3 3.3 5 5 C4.01 5.33 3.02 5.66 2 6 C2 7.98 2 9.96 2 12 C1.67 12 1.34 12 1 12 C0.67 8.04 0.34 4.08 0 0 Z " fill="#2485B4" transform="translate(103,51)"/>
<path d="M0 0 C-1.32 0.33 -2.64 0.66 -4 1 C-4 1.66 -4 2.32 -4 3 C-2.68 3.33 -1.36 3.66 0 4 C-0.928125 4.12375 -0.928125 4.12375 -1.875 4.25 C-4.18437567 4.81258459 -4.18437567 4.81258459 -5.25 7.0625 C-5.4975 7.701875 -5.745 8.34125 -6 9 C-6 7.35 -6 5.7 -6 4 C-6.66 3.67 -7.32 3.34 -8 3 C-5.53387212 -0.1151089 -3.89156016 -0.31553191 0 0 Z " fill="#2F4254" transform="translate(48,119)"/>
<path d="M0 0 C0.33 0.66 0.66 1.32 1 2 C3.02463255 2.65213292 3.02463255 2.65213292 5 3 C4.34 3 3.68 3 3 3 C3 4.65 3 6.3 3 8 C2.01 8.495 2.01 8.495 1 9 C0.87625 7.865625 0.7525 6.73125 0.625 5.5625 C0.41875 4.386875 0.2125 3.21125 0 2 C-0.66 1.67 -1.32 1.34 -2 1 C-1.34 0.67 -0.68 0.34 0 0 Z " fill="#7B93A6" transform="translate(162,117)"/>
<path d="M0 0 C0.66 0 1.32 0 2 0 C2.33 2.64 2.66 5.28 3 8 C1.0625 7.25 1.0625 7.25 -1 6 C-1.875 4 -1.875 4 -2 2 C-1.34 1.34 -0.68 0.68 0 0 Z " fill="#96AFC4" transform="translate(93,97)"/>
<path d="M0 0 C1.98 0 3.96 0 6 0 C6 1.65 6 3.3 6 5 C5.01 5.495 5.01 5.495 4 6 C4 5.34 4 4.68 4 4 C2.68 3.34 1.36 2.68 0 2 C0 1.34 0 0.68 0 0 Z " fill="#95AEBF" transform="translate(136,64)"/>
<path d="M0 0 C1.32 0.33 2.64 0.66 4 1 C4 2.65 4 4.3 4 6 C2.68 6 1.36 6 0 6 C0 4.02 0 2.04 0 0 Z " fill="#94A1BD" transform="translate(162,138)"/>
<path d="M0 0 C0.33 0 0.66 0 1 0 C1.33 3.63 1.66 7.26 2 11 C1.01 11 0.02 11 -1 11 C-2.41687119 6.74938644 -1.19320039 4.28148375 0 0 Z " fill="#9EB1C3" transform="translate(89,125)"/>
<path d="M0 0 C0.99 0.33 1.98 0.66 3 1 C3 3.31 3 5.62 3 8 C2.01 8 1.02 8 0 8 C0 5.36 0 2.72 0 0 Z " fill="#162B43" transform="translate(84,125)"/>
<path d="M0 0 C1.32 0.33 2.64 0.66 4 1 C4 2.98 4 4.96 4 7 C3.01 7 2.02 7 1 7 C0.67 4.69 0.34 2.38 0 0 Z " fill="#91ADC5" transform="translate(108,118)"/>
<path d="M0 0 C0.99 0 1.98 0 3 0 C3.33 1.32 3.66 2.64 4 4 C3.01 4 2.02 4 1 4 C1 4.66 1 5.32 1 6 C1.66 6 2.32 6 3 6 C2.67 6.99 2.34 7.98 2 9 C1.67 8.34 1.34 7.68 1 7 C0.34 7 -0.32 7 -1 7 C-0.67 4.69 -0.34 2.38 0 0 Z " fill="#9DB1C0" transform="translate(97,104)"/>
<path d="M0 0 C1.485 0.99 1.485 0.99 3 2 C5.32387947 2.39387788 7.65793749 2.73486085 10 3 C8 5 8 5 4.375 5.125 C3.26125 5.08375 2.1475 5.0425 1 5 C0.67 3.35 0.34 1.7 0 0 Z " fill="#61738A" transform="translate(150,130)"/>
<path d="M0 0 C1.485 0.99 1.485 0.99 3 2 C5.05709596 2.24055468 5.05709596 2.24055468 7.1875 2.125 C8.445625 2.08375 9.70375 2.0425 11 2 C11 2.66 11 3.32 11 4 C7.7 4.33 4.4 4.66 1 5 C0.67 3.35 0.34 1.7 0 0 Z " fill="#677A88" transform="translate(40,130)"/>
<path d="M0 0 C2.67901932 2.31881505 3.66204403 4.31814468 4.6875 7.6875 C4.93886719 8.49574219 5.19023438 9.30398437 5.44921875 10.13671875 C5.63097656 10.75160156 5.81273438 11.36648437 6 12 C5.34 12 4.68 12 4 12 C4 11.01 4 10.02 4 9 C3.34 9 2.68 9 2 9 C1.01 6.36 0.02 3.72 -1 1 C-0.67 0.67 -0.34 0.34 0 0 Z " fill="#738496" transform="translate(66,74)"/>
<path d="M0 0 C0.66 1.32 1.32 2.64 2 4 C2.66 4 3.32 4 4 4 C4.33 5.32 4.66 6.64 5 8 C4.01 8 3.02 8 2 8 C2 7.34 2 6.68 2 6 C1.34 6 0.68 6 0 6 C0 5.01 0 4.02 0 3 C-0.66 2.67 -1.32 2.34 -2 2 C-1.34 2 -0.68 2 0 2 C0 1.34 0 0.68 0 0 Z " fill="#0577BF" transform="translate(109,65)"/>
<path d="M0 0 C1.4606285 2.64738916 2 3.89448334 2 7 C0.68 7 -0.64 7 -2 7 C-2.125 4.625 -2.125 4.625 -2 2 C-1.34 1.34 -0.68 0.68 0 0 Z " fill="#909DB8" transform="translate(172,137)"/>
<path d="M0 0 C0.99 0 1.98 0 3 0 C3 1.98 3 3.96 3 6 C2.34 5.67 1.68 5.34 1 5 C0.01 5.33 -0.98 5.66 -2 6 C-2.33 5.34 -2.66 4.68 -3 4 C-2.34 4 -1.68 4 -1 4 C-0.67 2.68 -0.34 1.36 0 0 Z " fill="#9BAFBC" transform="translate(79,130)"/>
<path d="M0 0 C0.185625 0.9590625 0.185625 0.9590625 0.375 1.9375 C0.684375 2.9584375 0.684375 2.9584375 1 4 C1.66 4.33 2.32 4.66 3 5 C1.68 5.99 0.36 6.98 -1 8 C-1.66 7.67 -2.32 7.34 -3 7 C-1.125 2.25 -1.125 2.25 0 0 Z " fill="#1080C0" transform="translate(137,79)"/>
<path d="M0 0 C1.875 0.125 1.875 0.125 4 1 C5.25 4.0625 5.25 4.0625 6 7 C5.01 7.33 4.02 7.66 3 8 C0 2.25 0 2.25 0 0 Z " fill="#1D4C74" transform="translate(114,81)"/>
<path d="M0 0 C0.66 0 1.32 0 2 0 C2 0.66 2 1.32 2 2 C2.66 2 3.32 2 4 2 C5.4606285 4.64738916 6 5.89448334 6 9 C5.34 9 4.68 9 4 9 C0 2.25 0 2.25 0 0 Z " fill="#7CAECC" transform="translate(122,73)"/>
<path d="M0 0 C0 1.65 0 3.3 0 5 C-1.65 5.33 -3.3 5.66 -5 6 C-5.33 5.01 -5.66 4.02 -6 3 C-1.125 0 -1.125 0 0 0 Z " fill="#112131" transform="translate(51,127)"/>
<path d="M0 0 C0 1.65 0 3.3 0 5 C-1.32 5 -2.64 5 -4 5 C-4.33 3.68 -4.66 2.36 -5 1 C-2 0 -2 0 0 0 Z " fill="#7195B1" transform="translate(158,125)"/>
<path d="M0 0 C3.73884332 2.65654657 5.64978174 4.58110387 7 9 C4.13998967 7.71792641 1.92960588 6.50848764 0 4 C0 2.68 0 1.36 0 0 Z " fill="#0F375D" transform="translate(169,124)"/>
<path d="M0 0 C1.98 0.495 1.98 0.495 4 1 C3.34 1 2.68 1 2 1 C2 3.31 2 5.62 2 8 C0.4375 6.8125 0.4375 6.8125 -1 5 C-0.6875 2.3125 -0.6875 2.3125 0 0 Z " fill="#6D859A" transform="translate(62,119)"/>
<path d="M0 0 C1.65 0.33 3.3 0.66 5 1 C5.33 1.99 5.66 2.98 6 4 C3.69 4 1.38 4 -1 4 C-0.67 2.68 -0.34 1.36 0 0 Z " fill="#1E3042" transform="translate(32,119)"/>
<path d="M0 0 C1.32 1.32 2.64 2.64 4 4 C3.67 4.99 3.34 5.98 3 7 C2.34 7 1.68 7 1 7 C0.34 5.02 -0.32 3.04 -1 1 C-0.67 0.67 -0.34 0.34 0 0 Z " fill="#8FA3B5" transform="translate(72,91)"/>
<path d="M0 0 C0.99 0.33 1.98 0.66 3 1 C3.875 2.875 3.875 2.875 4 5 C2.5625 6.75 2.5625 6.75 1 8 C-0.35439668 5.29120665 -0.06501451 2.99066732 0 0 Z " fill="#2C7EB9" transform="translate(167,120)"/>
<path d="M0 0 C0.97212003 3.88848012 0.88140915 5.27849469 0 9 C0 9.66 0 10.32 0 11 C-1.32 10.67 -2.64 10.34 -4 10 C-2.68 6.7 -1.36 3.4 0 0 Z " fill="#7F9BB1" transform="translate(62,80)"/>
<path d="M0 0 C0.66 0 1.32 0 2 0 C1.74438677 2.3431213 1.40729228 4.67843403 1 7 C0.01 7.495 0.01 7.495 -1 8 C-1.66 6.35 -2.32 4.7 -3 3 C-1.68 3 -0.36 3 1 3 C0.67 2.01 0.34 1.02 0 0 Z " fill="#193D5A" transform="translate(58,83)"/>
<path d="M0 0 C0.66 0 1.32 0 2 0 C2 1.32 2 2.64 2 4 C3.65 4.33 5.3 4.66 7 5 C6.01 5.33 5.02 5.66 4 6 C3.67 6.66 3.34 7.32 3 8 C0.4345406 5.4345406 0.45953913 3.52313332 0 0 Z " fill="#02487D" transform="translate(60,64)"/>
<path d="M0 0 C2.475 0.495 2.475 0.495 5 1 C5 1.66 5 2.32 5 3 C3.35 3.66 1.7 4.32 0 5 C0 3.35 0 1.7 0 0 Z " fill="#1498EF" transform="translate(151,83)"/>
<path d="M0 0 C0.66 0 1.32 0 2 0 C1.125 5.75 1.125 5.75 0 8 C-0.99 7.67 -1.98 7.34 -3 7 C-3 6.34 -3 5.68 -3 5 C-2.34 5 -1.68 5 -1 5 C-1 4.34 -1 3.68 -1 3 C-0.34 3 0.32 3 1 3 C0.67 2.01 0.34 1.02 0 0 Z " fill="#6E99B9" transform="translate(132,80)"/>
<path d="M0 0 C1.98 0.99 1.98 0.99 4 2 C3.67 2.99 3.34 3.98 3 5 C2.34 5 1.68 5 1 5 C0.67 5.99 0.34 6.98 0 8 C0 5.36 0 2.72 0 0 Z " fill="#1C5B83" transform="translate(103,72)"/>
<path d="M0 0 C0.99 0.33 1.98 0.66 3 1 C3 2.65 3 4.3 3 6 C2.01 6.33 1.02 6.66 0 7 C0 4.69 0 2.38 0 0 Z " fill="#A2B5C1" transform="translate(77,59)"/>
<path d="M0 0 C1.65 0.33 3.3 0.66 5 1 C5.33 2.65 5.66 4.3 6 6 C5.67 5.01 5.34 4.02 5 3 C3.02 3 1.04 3 -1 3 C-0.67 2.01 -0.34 1.02 0 0 Z " fill="#0D4264" transform="translate(155,121)"/>
<path d="M0 0 C0.99 0 1.98 0 3 0 C3.36923077 4.55384615 3.36923077 4.55384615 1.5 6.8125 C1.005 7.204375 0.51 7.59625 0 8 C0 5.36 0 2.72 0 0 Z " fill="#2C4A66" transform="translate(105,120)"/>
<path d="M0 0 C0.66 0 1.32 0 2 0 C2 0.99 2 1.98 2 3 C1.34 3 0.68 3 0 3 C-0.33 3.66 -0.66 4.32 -1 5 C-1.99 5 -2.98 5 -4 5 C-3.34 3.68 -2.68 2.36 -2 1 C-1.34 1.33 -0.68 1.66 0 2 C0 1.34 0 0.68 0 0 Z " fill="#99ABB8" transform="translate(36,103)"/>
<path d="M0 0 C1 2 1 2 0.25 4.5625 C-1 7 -1 7 -4 8 C-2.25 2.25 -2.25 2.25 0 0 Z " fill="#7591A3" transform="translate(142,91)"/>
<path d="M0 0 C0.99 0.33 1.98 0.66 3 1 C1.515 3.475 1.515 3.475 0 6 C-0.66 5.67 -1.32 5.34 -2 5 C-1.125 1.125 -1.125 1.125 0 0 Z " fill="#132C49" transform="translate(47,87)"/>
<path d="M0 0 C0.99 0.33 1.98 0.66 3 1 C3 2.65 3 4.3 3 6 C2.01 6 1.02 6 0 6 C0 4.02 0 2.04 0 0 Z " fill="#0A5487" transform="translate(104,80)"/>
<path d="M0 0 C0.99 0.33 1.98 0.66 3 1 C1.515 3.475 1.515 3.475 0 6 C-0.99 5.67 -1.98 5.34 -3 5 C-3 3 -3 3 -1.5 1.375 C-1.005 0.92125 -0.51 0.4675 0 0 Z " fill="#8FA6B7" transform="translate(135,75)"/>
<path d="M0 0 C0.99 0 1.98 0 3 0 C2.25 4.75 2.25 4.75 0 7 C-0.38133299 5.0085944 -0.71325582 3.00720923 -1 1 C-0.67 0.67 -0.34 0.34 0 0 Z " fill="#96B4BF" transform="translate(99,48)"/>
</svg>
